%TF.GenerationSoftware,KiCad,Pcbnew,(5.1.10)-1*%
%TF.CreationDate,2022-03-27T12:35:49-04:00*%
%TF.ProjectId,M5TC-2022-U4BN,4d355443-2d32-4303-9232-2d5534424e2e,rev?*%
%TF.SameCoordinates,Original*%
%TF.FileFunction,Legend,Bot*%
%TF.FilePolarity,Positive*%
%FSLAX46Y46*%
G04 Gerber Fmt 4.6, Leading zero omitted, Abs format (unit mm)*
G04 Created by KiCad (PCBNEW (5.1.10)-1) date 2022-03-27 12:35:49*
%MOMM*%
%LPD*%
G01*
G04 APERTURE LIST*
%ADD10C,0.150000*%
%ADD11C,0.254000*%
G04 APERTURE END LIST*
D10*
X264618214Y-115832380D02*
X265094404Y-115832380D01*
X265094404Y-114832380D01*
X264284880Y-115832380D02*
X264284880Y-115165714D01*
X264284880Y-114832380D02*
X264332500Y-114880000D01*
X264284880Y-114927619D01*
X264237261Y-114880000D01*
X264284880Y-114832380D01*
X264284880Y-114927619D01*
X263380119Y-115784761D02*
X263475357Y-115832380D01*
X263665833Y-115832380D01*
X263761071Y-115784761D01*
X263808690Y-115737142D01*
X263856309Y-115641904D01*
X263856309Y-115356190D01*
X263808690Y-115260952D01*
X263761071Y-115213333D01*
X263665833Y-115165714D01*
X263475357Y-115165714D01*
X263380119Y-115213333D01*
X262570595Y-115784761D02*
X262665833Y-115832380D01*
X262856309Y-115832380D01*
X262951547Y-115784761D01*
X262999166Y-115689523D01*
X262999166Y-115308571D01*
X262951547Y-115213333D01*
X262856309Y-115165714D01*
X262665833Y-115165714D01*
X262570595Y-115213333D01*
X262522976Y-115308571D01*
X262522976Y-115403809D01*
X262999166Y-115499047D01*
X262094404Y-115165714D02*
X262094404Y-115832380D01*
X262094404Y-115260952D02*
X262046785Y-115213333D01*
X261951547Y-115165714D01*
X261808690Y-115165714D01*
X261713452Y-115213333D01*
X261665833Y-115308571D01*
X261665833Y-115832380D01*
X261237261Y-115784761D02*
X261142023Y-115832380D01*
X260951547Y-115832380D01*
X260856309Y-115784761D01*
X260808690Y-115689523D01*
X260808690Y-115641904D01*
X260856309Y-115546666D01*
X260951547Y-115499047D01*
X261094404Y-115499047D01*
X261189642Y-115451428D01*
X261237261Y-115356190D01*
X261237261Y-115308571D01*
X261189642Y-115213333D01*
X261094404Y-115165714D01*
X260951547Y-115165714D01*
X260856309Y-115213333D01*
X259999166Y-115784761D02*
X260094404Y-115832380D01*
X260284880Y-115832380D01*
X260380119Y-115784761D01*
X260427738Y-115689523D01*
X260427738Y-115308571D01*
X260380119Y-115213333D01*
X260284880Y-115165714D01*
X260094404Y-115165714D01*
X259999166Y-115213333D01*
X259951547Y-115308571D01*
X259951547Y-115403809D01*
X260427738Y-115499047D01*
X259522976Y-115737142D02*
X259475357Y-115784761D01*
X259522976Y-115832380D01*
X259570595Y-115784761D01*
X259522976Y-115737142D01*
X259522976Y-115832380D01*
X259522976Y-115213333D02*
X259475357Y-115260952D01*
X259522976Y-115308571D01*
X259570595Y-115260952D01*
X259522976Y-115213333D01*
X259522976Y-115308571D01*
X257713452Y-115737142D02*
X257761071Y-115784761D01*
X257903928Y-115832380D01*
X257999166Y-115832380D01*
X258142023Y-115784761D01*
X258237261Y-115689523D01*
X258284880Y-115594285D01*
X258332500Y-115403809D01*
X258332500Y-115260952D01*
X258284880Y-115070476D01*
X258237261Y-114975238D01*
X258142023Y-114880000D01*
X257999166Y-114832380D01*
X257903928Y-114832380D01*
X257761071Y-114880000D01*
X257713452Y-114927619D01*
X256713452Y-115737142D02*
X256761071Y-115784761D01*
X256903928Y-115832380D01*
X256999166Y-115832380D01*
X257142023Y-115784761D01*
X257237261Y-115689523D01*
X257284880Y-115594285D01*
X257332500Y-115403809D01*
X257332500Y-115260952D01*
X257284880Y-115070476D01*
X257237261Y-114975238D01*
X257142023Y-114880000D01*
X256999166Y-114832380D01*
X256903928Y-114832380D01*
X256761071Y-114880000D01*
X256713452Y-114927619D01*
X255189642Y-115308571D02*
X255046785Y-115356190D01*
X254999166Y-115403809D01*
X254951547Y-115499047D01*
X254951547Y-115641904D01*
X254999166Y-115737142D01*
X255046785Y-115784761D01*
X255142023Y-115832380D01*
X255522976Y-115832380D01*
X255522976Y-114832380D01*
X255189642Y-114832380D01*
X255094404Y-114880000D01*
X255046785Y-114927619D01*
X254999166Y-115022857D01*
X254999166Y-115118095D01*
X255046785Y-115213333D01*
X255094404Y-115260952D01*
X255189642Y-115308571D01*
X255522976Y-115308571D01*
X254332500Y-115356190D02*
X254332500Y-115832380D01*
X254665833Y-114832380D02*
X254332500Y-115356190D01*
X253999166Y-114832380D01*
X252475357Y-115165714D02*
X252475357Y-115832380D01*
X252713452Y-114784761D02*
X252951547Y-115499047D01*
X252332500Y-115499047D01*
X251951547Y-115737142D02*
X251903928Y-115784761D01*
X251951547Y-115832380D01*
X251999166Y-115784761D01*
X251951547Y-115737142D01*
X251951547Y-115832380D01*
X251284880Y-114832380D02*
X251189642Y-114832380D01*
X251094404Y-114880000D01*
X251046785Y-114927619D01*
X250999166Y-115022857D01*
X250951547Y-115213333D01*
X250951547Y-115451428D01*
X250999166Y-115641904D01*
X251046785Y-115737142D01*
X251094404Y-115784761D01*
X251189642Y-115832380D01*
X251284880Y-115832380D01*
X251380119Y-115784761D01*
X251427738Y-115737142D01*
X251475357Y-115641904D01*
X251522976Y-115451428D01*
X251522976Y-115213333D01*
X251475357Y-115022857D01*
X251427738Y-114927619D01*
X251380119Y-114880000D01*
X251284880Y-114832380D01*
X264808690Y-116482380D02*
X264808690Y-117196666D01*
X264856309Y-117339523D01*
X264951547Y-117434761D01*
X265094404Y-117482380D01*
X265189642Y-117482380D01*
X263856309Y-117482380D02*
X264332500Y-117482380D01*
X264332500Y-116482380D01*
X262951547Y-117387142D02*
X262999166Y-117434761D01*
X263142023Y-117482380D01*
X263237261Y-117482380D01*
X263380119Y-117434761D01*
X263475357Y-117339523D01*
X263522976Y-117244285D01*
X263570595Y-117053809D01*
X263570595Y-116910952D01*
X263522976Y-116720476D01*
X263475357Y-116625238D01*
X263380119Y-116530000D01*
X263237261Y-116482380D01*
X263142023Y-116482380D01*
X262999166Y-116530000D01*
X262951547Y-116577619D01*
X262237261Y-116482380D02*
X262237261Y-117196666D01*
X262284880Y-117339523D01*
X262380119Y-117434761D01*
X262522976Y-117482380D01*
X262618214Y-117482380D01*
X261284880Y-117482380D02*
X261761071Y-117482380D01*
X261761071Y-116482380D01*
X260380119Y-117387142D02*
X260427738Y-117434761D01*
X260570595Y-117482380D01*
X260665833Y-117482380D01*
X260808690Y-117434761D01*
X260903928Y-117339523D01*
X260951547Y-117244285D01*
X260999166Y-117053809D01*
X260999166Y-116910952D01*
X260951547Y-116720476D01*
X260903928Y-116625238D01*
X260808690Y-116530000D01*
X260665833Y-116482380D01*
X260570595Y-116482380D01*
X260427738Y-116530000D01*
X260380119Y-116577619D01*
X259665833Y-116482380D02*
X259665833Y-117196666D01*
X259713452Y-117339523D01*
X259808690Y-117434761D01*
X259951547Y-117482380D01*
X260046785Y-117482380D01*
X258713452Y-117482380D02*
X259189642Y-117482380D01*
X259189642Y-116482380D01*
X257808690Y-117387142D02*
X257856309Y-117434761D01*
X257999166Y-117482380D01*
X258094404Y-117482380D01*
X258237261Y-117434761D01*
X258332500Y-117339523D01*
X258380119Y-117244285D01*
X258427738Y-117053809D01*
X258427738Y-116910952D01*
X258380119Y-116720476D01*
X258332500Y-116625238D01*
X258237261Y-116530000D01*
X258094404Y-116482380D01*
X257999166Y-116482380D01*
X257856309Y-116530000D01*
X257808690Y-116577619D01*
X257094404Y-116482380D02*
X257094404Y-117196666D01*
X257142023Y-117339523D01*
X257237261Y-117434761D01*
X257380119Y-117482380D01*
X257475357Y-117482380D01*
X256142023Y-117482380D02*
X256618214Y-117482380D01*
X256618214Y-116482380D01*
X255237261Y-117387142D02*
X255284880Y-117434761D01*
X255427738Y-117482380D01*
X255522976Y-117482380D01*
X255665833Y-117434761D01*
X255761071Y-117339523D01*
X255808690Y-117244285D01*
X255856309Y-117053809D01*
X255856309Y-116910952D01*
X255808690Y-116720476D01*
X255761071Y-116625238D01*
X255665833Y-116530000D01*
X255522976Y-116482380D01*
X255427738Y-116482380D01*
X255284880Y-116530000D01*
X255237261Y-116577619D01*
D11*
X264811328Y-107605285D02*
X264811328Y-105700285D01*
X264357757Y-105700285D01*
X264085614Y-105791000D01*
X263904185Y-105972428D01*
X263813471Y-106153857D01*
X263722757Y-106516714D01*
X263722757Y-106788857D01*
X263813471Y-107151714D01*
X263904185Y-107333142D01*
X264085614Y-107514571D01*
X264357757Y-107605285D01*
X264811328Y-107605285D01*
X262180614Y-107514571D02*
X262362042Y-107605285D01*
X262724900Y-107605285D01*
X262906328Y-107514571D01*
X262997042Y-107333142D01*
X262997042Y-106607428D01*
X262906328Y-106426000D01*
X262724900Y-106335285D01*
X262362042Y-106335285D01*
X262180614Y-106426000D01*
X262089900Y-106607428D01*
X262089900Y-106788857D01*
X262997042Y-106970285D01*
X261364185Y-107514571D02*
X261182757Y-107605285D01*
X260819900Y-107605285D01*
X260638471Y-107514571D01*
X260547757Y-107333142D01*
X260547757Y-107242428D01*
X260638471Y-107061000D01*
X260819900Y-106970285D01*
X261092042Y-106970285D01*
X261273471Y-106879571D01*
X261364185Y-106698142D01*
X261364185Y-106607428D01*
X261273471Y-106426000D01*
X261092042Y-106335285D01*
X260819900Y-106335285D01*
X260638471Y-106426000D01*
X259731328Y-107605285D02*
X259731328Y-106335285D01*
X259731328Y-105700285D02*
X259822042Y-105791000D01*
X259731328Y-105881714D01*
X259640614Y-105791000D01*
X259731328Y-105700285D01*
X259731328Y-105881714D01*
X258007757Y-106335285D02*
X258007757Y-107877428D01*
X258098471Y-108058857D01*
X258189185Y-108149571D01*
X258370614Y-108240285D01*
X258642757Y-108240285D01*
X258824185Y-108149571D01*
X258007757Y-107514571D02*
X258189185Y-107605285D01*
X258552042Y-107605285D01*
X258733471Y-107514571D01*
X258824185Y-107423857D01*
X258914900Y-107242428D01*
X258914900Y-106698142D01*
X258824185Y-106516714D01*
X258733471Y-106426000D01*
X258552042Y-106335285D01*
X258189185Y-106335285D01*
X258007757Y-106426000D01*
X257100614Y-106335285D02*
X257100614Y-107605285D01*
X257100614Y-106516714D02*
X257009900Y-106426000D01*
X256828471Y-106335285D01*
X256556328Y-106335285D01*
X256374900Y-106426000D01*
X256284185Y-106607428D01*
X256284185Y-107605285D01*
X254651328Y-107514571D02*
X254832757Y-107605285D01*
X255195614Y-107605285D01*
X255377042Y-107514571D01*
X255467757Y-107333142D01*
X255467757Y-106607428D01*
X255377042Y-106426000D01*
X255195614Y-106335285D01*
X254832757Y-106335285D01*
X254651328Y-106426000D01*
X254560614Y-106607428D01*
X254560614Y-106788857D01*
X255467757Y-106970285D01*
X253744185Y-107605285D02*
X253744185Y-106335285D01*
X253744185Y-106698142D02*
X253653471Y-106516714D01*
X253562757Y-106426000D01*
X253381328Y-106335285D01*
X253199900Y-106335285D01*
X252655614Y-107514571D02*
X252474185Y-107605285D01*
X252111328Y-107605285D01*
X251929900Y-107514571D01*
X251839185Y-107333142D01*
X251839185Y-107242428D01*
X251929900Y-107061000D01*
X252111328Y-106970285D01*
X252383471Y-106970285D01*
X252564900Y-106879571D01*
X252655614Y-106698142D01*
X252655614Y-106607428D01*
X252564900Y-106426000D01*
X252383471Y-106335285D01*
X252111328Y-106335285D01*
X251929900Y-106426000D01*
X251022757Y-107423857D02*
X250932042Y-107514571D01*
X251022757Y-107605285D01*
X251113471Y-107514571D01*
X251022757Y-107423857D01*
X251022757Y-107605285D01*
X251022757Y-106426000D02*
X250932042Y-106516714D01*
X251022757Y-106607428D01*
X251113471Y-106516714D01*
X251022757Y-106426000D01*
X251022757Y-106607428D01*
X264902042Y-110172500D02*
X263994900Y-110172500D01*
X265083471Y-110716785D02*
X264448471Y-108811785D01*
X263813471Y-110716785D01*
X263178471Y-110716785D02*
X263178471Y-108811785D01*
X262997042Y-109991071D02*
X262452757Y-110716785D01*
X262452757Y-109446785D02*
X263178471Y-110172500D01*
X261727042Y-110626071D02*
X261545614Y-110716785D01*
X261182757Y-110716785D01*
X261001328Y-110626071D01*
X260910614Y-110444642D01*
X260910614Y-110353928D01*
X261001328Y-110172500D01*
X261182757Y-110081785D01*
X261454900Y-110081785D01*
X261636328Y-109991071D01*
X261727042Y-109809642D01*
X261727042Y-109718928D01*
X261636328Y-109537500D01*
X261454900Y-109446785D01*
X261182757Y-109446785D01*
X261001328Y-109537500D01*
X260094185Y-110716785D02*
X260094185Y-108811785D01*
X259277757Y-110716785D02*
X259277757Y-109718928D01*
X259368471Y-109537500D01*
X259549900Y-109446785D01*
X259822042Y-109446785D01*
X260003471Y-109537500D01*
X260094185Y-109628214D01*
X257554185Y-110716785D02*
X257554185Y-109718928D01*
X257644900Y-109537500D01*
X257826328Y-109446785D01*
X258189185Y-109446785D01*
X258370614Y-109537500D01*
X257554185Y-110626071D02*
X257735614Y-110716785D01*
X258189185Y-110716785D01*
X258370614Y-110626071D01*
X258461328Y-110444642D01*
X258461328Y-110263214D01*
X258370614Y-110081785D01*
X258189185Y-109991071D01*
X257735614Y-109991071D01*
X257554185Y-109900357D01*
X256919185Y-109446785D02*
X256193471Y-109446785D01*
X256647042Y-108811785D02*
X256647042Y-110444642D01*
X256556328Y-110626071D01*
X256374900Y-110716785D01*
X256193471Y-110716785D01*
X254197757Y-110626071D02*
X253925614Y-110716785D01*
X253472042Y-110716785D01*
X253290614Y-110626071D01*
X253199900Y-110535357D01*
X253109185Y-110353928D01*
X253109185Y-110172500D01*
X253199900Y-109991071D01*
X253290614Y-109900357D01*
X253472042Y-109809642D01*
X253834900Y-109718928D01*
X254016328Y-109628214D01*
X254107042Y-109537500D01*
X254197757Y-109356071D01*
X254197757Y-109174642D01*
X254107042Y-108993214D01*
X254016328Y-108902500D01*
X253834900Y-108811785D01*
X253381328Y-108811785D01*
X253109185Y-108902500D01*
X251476328Y-110716785D02*
X251476328Y-109718928D01*
X251567042Y-109537500D01*
X251748471Y-109446785D01*
X252111328Y-109446785D01*
X252292757Y-109537500D01*
X251476328Y-110626071D02*
X251657757Y-110716785D01*
X252111328Y-110716785D01*
X252292757Y-110626071D01*
X252383471Y-110444642D01*
X252383471Y-110263214D01*
X252292757Y-110081785D01*
X252111328Y-109991071D01*
X251657757Y-109991071D01*
X251476328Y-109900357D01*
X250569185Y-110716785D02*
X250569185Y-108811785D01*
X249752757Y-110716785D02*
X249752757Y-109718928D01*
X249843471Y-109537500D01*
X250024900Y-109446785D01*
X250297042Y-109446785D01*
X250478471Y-109537500D01*
X250569185Y-109628214D01*
X248029185Y-110716785D02*
X248029185Y-109718928D01*
X248119900Y-109537500D01*
X248301328Y-109446785D01*
X248664185Y-109446785D01*
X248845614Y-109537500D01*
X248029185Y-110626071D02*
X248210614Y-110716785D01*
X248664185Y-110716785D01*
X248845614Y-110626071D01*
X248936328Y-110444642D01*
X248936328Y-110263214D01*
X248845614Y-110081785D01*
X248664185Y-109991071D01*
X248210614Y-109991071D01*
X248029185Y-109900357D01*
X247303471Y-109446785D02*
X246849900Y-110716785D01*
X246396328Y-109446785D02*
X246849900Y-110716785D01*
X247031328Y-111170357D01*
X247122042Y-111261071D01*
X247303471Y-111351785D01*
X244219185Y-109991071D02*
X242767757Y-109991071D01*
X239320614Y-110535357D02*
X239411328Y-110626071D01*
X239683471Y-110716785D01*
X239864900Y-110716785D01*
X240137042Y-110626071D01*
X240318471Y-110444642D01*
X240409185Y-110263214D01*
X240499900Y-109900357D01*
X240499900Y-109628214D01*
X240409185Y-109265357D01*
X240318471Y-109083928D01*
X240137042Y-108902500D01*
X239864900Y-108811785D01*
X239683471Y-108811785D01*
X239411328Y-108902500D01*
X239320614Y-108993214D01*
X238504185Y-109718928D02*
X237869185Y-109718928D01*
X237597042Y-110716785D02*
X238504185Y-110716785D01*
X238504185Y-108811785D01*
X237597042Y-108811785D01*
X235419900Y-108993214D02*
X235329185Y-108902500D01*
X235147757Y-108811785D01*
X234694185Y-108811785D01*
X234512757Y-108902500D01*
X234422042Y-108993214D01*
X234331328Y-109174642D01*
X234331328Y-109356071D01*
X234422042Y-109628214D01*
X235510614Y-110716785D01*
X234331328Y-110716785D01*
X233152042Y-108811785D02*
X232970614Y-108811785D01*
X232789185Y-108902500D01*
X232698471Y-108993214D01*
X232607757Y-109174642D01*
X232517042Y-109537500D01*
X232517042Y-109991071D01*
X232607757Y-110353928D01*
X232698471Y-110535357D01*
X232789185Y-110626071D01*
X232970614Y-110716785D01*
X233152042Y-110716785D01*
X233333471Y-110626071D01*
X233424185Y-110535357D01*
X233514900Y-110353928D01*
X233605614Y-109991071D01*
X233605614Y-109537500D01*
X233514900Y-109174642D01*
X233424185Y-108993214D01*
X233333471Y-108902500D01*
X233152042Y-108811785D01*
X231791328Y-108993214D02*
X231700614Y-108902500D01*
X231519185Y-108811785D01*
X231065614Y-108811785D01*
X230884185Y-108902500D01*
X230793471Y-108993214D01*
X230702757Y-109174642D01*
X230702757Y-109356071D01*
X230793471Y-109628214D01*
X231882042Y-110716785D01*
X230702757Y-110716785D01*
X230067757Y-108811785D02*
X228888471Y-108811785D01*
X229523471Y-109537500D01*
X229251328Y-109537500D01*
X229069900Y-109628214D01*
X228979185Y-109718928D01*
X228888471Y-109900357D01*
X228888471Y-110353928D01*
X228979185Y-110535357D01*
X229069900Y-110626071D01*
X229251328Y-110716785D01*
X229795614Y-110716785D01*
X229977042Y-110626071D01*
X230067757Y-110535357D01*
X227981328Y-110626071D02*
X227981328Y-110716785D01*
X228072042Y-110898214D01*
X228162757Y-110988928D01*
X263722757Y-113646857D02*
X263813471Y-113737571D01*
X264085614Y-113828285D01*
X264267042Y-113828285D01*
X264539185Y-113737571D01*
X264720614Y-113556142D01*
X264811328Y-113374714D01*
X264902042Y-113011857D01*
X264902042Y-112739714D01*
X264811328Y-112376857D01*
X264720614Y-112195428D01*
X264539185Y-112014000D01*
X264267042Y-111923285D01*
X264085614Y-111923285D01*
X263813471Y-112014000D01*
X263722757Y-112104714D01*
X262906328Y-113828285D02*
X262906328Y-111923285D01*
X262089900Y-113828285D02*
X262089900Y-112830428D01*
X262180614Y-112649000D01*
X262362042Y-112558285D01*
X262634185Y-112558285D01*
X262815614Y-112649000D01*
X262906328Y-112739714D01*
X261182757Y-113828285D02*
X261182757Y-112558285D01*
X261182757Y-112921142D02*
X261092042Y-112739714D01*
X261001328Y-112649000D01*
X260819900Y-112558285D01*
X260638471Y-112558285D01*
X260003471Y-113828285D02*
X260003471Y-112558285D01*
X260003471Y-111923285D02*
X260094185Y-112014000D01*
X260003471Y-112104714D01*
X259912757Y-112014000D01*
X260003471Y-111923285D01*
X260003471Y-112104714D01*
X259187042Y-113737571D02*
X259005614Y-113828285D01*
X258642757Y-113828285D01*
X258461328Y-113737571D01*
X258370614Y-113556142D01*
X258370614Y-113465428D01*
X258461328Y-113284000D01*
X258642757Y-113193285D01*
X258914900Y-113193285D01*
X259096328Y-113102571D01*
X259187042Y-112921142D01*
X259187042Y-112830428D01*
X259096328Y-112649000D01*
X258914900Y-112558285D01*
X258642757Y-112558285D01*
X258461328Y-112649000D01*
X255014185Y-113646857D02*
X255104900Y-113737571D01*
X255377042Y-113828285D01*
X255558471Y-113828285D01*
X255830614Y-113737571D01*
X256012042Y-113556142D01*
X256102757Y-113374714D01*
X256193471Y-113011857D01*
X256193471Y-112739714D01*
X256102757Y-112376857D01*
X256012042Y-112195428D01*
X255830614Y-112014000D01*
X255558471Y-111923285D01*
X255377042Y-111923285D01*
X255104900Y-112014000D01*
X255014185Y-112104714D01*
X253381328Y-113828285D02*
X253381328Y-112830428D01*
X253472042Y-112649000D01*
X253653471Y-112558285D01*
X254016328Y-112558285D01*
X254197757Y-112649000D01*
X253381328Y-113737571D02*
X253562757Y-113828285D01*
X254016328Y-113828285D01*
X254197757Y-113737571D01*
X254288471Y-113556142D01*
X254288471Y-113374714D01*
X254197757Y-113193285D01*
X254016328Y-113102571D01*
X253562757Y-113102571D01*
X253381328Y-113011857D01*
X252474185Y-113828285D02*
X252474185Y-112558285D01*
X252474185Y-112921142D02*
X252383471Y-112739714D01*
X252292757Y-112649000D01*
X252111328Y-112558285D01*
X251929900Y-112558285D01*
X251022757Y-113828285D02*
X251204185Y-113737571D01*
X251294900Y-113646857D01*
X251385614Y-113465428D01*
X251385614Y-112921142D01*
X251294900Y-112739714D01*
X251204185Y-112649000D01*
X251022757Y-112558285D01*
X250750614Y-112558285D01*
X250569185Y-112649000D01*
X250478471Y-112739714D01*
X250387757Y-112921142D01*
X250387757Y-113465428D01*
X250478471Y-113646857D01*
X250569185Y-113737571D01*
X250750614Y-113828285D01*
X251022757Y-113828285D01*
X249571328Y-112558285D02*
X249571328Y-113828285D01*
X249571328Y-112739714D02*
X249480614Y-112649000D01*
X249299185Y-112558285D01*
X249027042Y-112558285D01*
X248845614Y-112649000D01*
X248754900Y-112830428D01*
X248754900Y-113828285D01*
X246396328Y-113102571D02*
X244944900Y-113102571D01*
X242586328Y-113828285D02*
X242586328Y-111923285D01*
X241951328Y-113284000D01*
X241316328Y-111923285D01*
X241316328Y-113828285D01*
X240499900Y-113737571D02*
X240227757Y-113828285D01*
X239774185Y-113828285D01*
X239592757Y-113737571D01*
X239502042Y-113646857D01*
X239411328Y-113465428D01*
X239411328Y-113284000D01*
X239502042Y-113102571D01*
X239592757Y-113011857D01*
X239774185Y-112921142D01*
X240137042Y-112830428D01*
X240318471Y-112739714D01*
X240409185Y-112649000D01*
X240499900Y-112467571D01*
X240499900Y-112286142D01*
X240409185Y-112104714D01*
X240318471Y-112014000D01*
X240137042Y-111923285D01*
X239683471Y-111923285D01*
X239411328Y-112014000D01*
X237143471Y-112830428D02*
X236508471Y-112830428D01*
X236236328Y-113828285D02*
X237143471Y-113828285D01*
X237143471Y-111923285D01*
X236236328Y-111923285D01*
X235419900Y-112830428D02*
X234784900Y-112830428D01*
X234512757Y-113828285D02*
X235419900Y-113828285D01*
X235419900Y-111923285D01*
X234512757Y-111923285D01*
X232335614Y-112104714D02*
X232244900Y-112014000D01*
X232063471Y-111923285D01*
X231609900Y-111923285D01*
X231428471Y-112014000D01*
X231337757Y-112104714D01*
X231247042Y-112286142D01*
X231247042Y-112467571D01*
X231337757Y-112739714D01*
X232426328Y-113828285D01*
X231247042Y-113828285D01*
X230067757Y-111923285D02*
X229886328Y-111923285D01*
X229704900Y-112014000D01*
X229614185Y-112104714D01*
X229523471Y-112286142D01*
X229432757Y-112649000D01*
X229432757Y-113102571D01*
X229523471Y-113465428D01*
X229614185Y-113646857D01*
X229704900Y-113737571D01*
X229886328Y-113828285D01*
X230067757Y-113828285D01*
X230249185Y-113737571D01*
X230339900Y-113646857D01*
X230430614Y-113465428D01*
X230521328Y-113102571D01*
X230521328Y-112649000D01*
X230430614Y-112286142D01*
X230339900Y-112104714D01*
X230249185Y-112014000D01*
X230067757Y-111923285D01*
X228707042Y-112104714D02*
X228616328Y-112014000D01*
X228434900Y-111923285D01*
X227981328Y-111923285D01*
X227799900Y-112014000D01*
X227709185Y-112104714D01*
X227618471Y-112286142D01*
X227618471Y-112467571D01*
X227709185Y-112739714D01*
X228797757Y-113828285D01*
X227618471Y-113828285D01*
X226983471Y-111923285D02*
X225804185Y-111923285D01*
X226439185Y-112649000D01*
X226167042Y-112649000D01*
X225985614Y-112739714D01*
X225894900Y-112830428D01*
X225804185Y-113011857D01*
X225804185Y-113465428D01*
X225894900Y-113646857D01*
X225985614Y-113737571D01*
X226167042Y-113828285D01*
X226711328Y-113828285D01*
X226892757Y-113737571D01*
X226983471Y-113646857D01*
M02*
