%TF.GenerationSoftware,KiCad,Pcbnew,(5.1.10)-1*%
%TF.CreationDate,2022-03-27T12:35:49-04:00*%
%TF.ProjectId,M5TC-2022-U4BN,4d355443-2d32-4303-9232-2d5534424e2e,rev?*%
%TF.SameCoordinates,Original*%
%TF.FileFunction,Soldermask,Bot*%
%TF.FilePolarity,Negative*%
%FSLAX46Y46*%
G04 Gerber Fmt 4.6, Leading zero omitted, Abs format (unit mm)*
G04 Created by KiCad (PCBNEW (5.1.10)-1) date 2022-03-27 12:35:49*
%MOMM*%
%LPD*%
G01*
G04 APERTURE LIST*
%ADD10C,1.600000*%
%ADD11R,1.600000X1.600000*%
%ADD12C,10.600000*%
%ADD13C,0.900000*%
%ADD14R,1.700000X1.700000*%
%ADD15O,1.700000X1.700000*%
%ADD16R,1.500000X1.500000*%
%ADD17C,1.500000*%
%ADD18C,1.800000*%
%ADD19R,1.800000X1.800000*%
%ADD20R,1.300000X1.300000*%
%ADD21C,1.300000*%
%ADD22C,1.900000*%
%ADD23C,1.499997*%
%ADD24C,1.999996*%
%ADD25C,1.524000*%
%ADD26R,1.524000X1.524000*%
G04 APERTURE END LIST*
D10*
%TO.C,A1*%
X205740000Y-182880000D03*
X205740000Y-180340000D03*
X205740000Y-177800000D03*
X205740000Y-175260000D03*
X205740000Y-172720000D03*
X205740000Y-170180000D03*
X205740000Y-167640000D03*
X205740000Y-165100000D03*
X205740000Y-162560000D03*
X205740000Y-160020000D03*
X205740000Y-157480000D03*
X205740000Y-154940000D03*
X205740000Y-152400000D03*
X205740000Y-149860000D03*
X205740000Y-147320000D03*
D11*
X205740000Y-144780000D03*
D10*
X226060000Y-154940000D03*
X226060000Y-157480000D03*
X226060000Y-160020000D03*
X226060000Y-162560000D03*
X226060000Y-165100000D03*
X226060000Y-167640000D03*
X226060000Y-170180000D03*
X226060000Y-172720000D03*
X226060000Y-175260000D03*
X226060000Y-177800000D03*
X226060000Y-180340000D03*
X226060000Y-182880000D03*
%TD*%
D12*
%TO.C,H4*%
X158750000Y-107950000D03*
D13*
X162725000Y-107950000D03*
X161560749Y-110760749D03*
X158750000Y-111925000D03*
X155939251Y-110760749D03*
X154775000Y-107950000D03*
X155939251Y-105139251D03*
X158750000Y-103975000D03*
X161560749Y-105139251D03*
%TD*%
D12*
%TO.C,H1*%
X273050000Y-222250000D03*
D13*
X277025000Y-222250000D03*
X275860749Y-225060749D03*
X273050000Y-226225000D03*
X270239251Y-225060749D03*
X269075000Y-222250000D03*
X270239251Y-219439251D03*
X273050000Y-218275000D03*
X275860749Y-219439251D03*
%TD*%
%TO.C,H2*%
X275860749Y-105139251D03*
X273050000Y-103975000D03*
X270239251Y-105139251D03*
X269075000Y-107950000D03*
X270239251Y-110760749D03*
X273050000Y-111925000D03*
X275860749Y-110760749D03*
X277025000Y-107950000D03*
D12*
X273050000Y-107950000D03*
%TD*%
D13*
%TO.C,H3*%
X161560749Y-219439251D03*
X158750000Y-218275000D03*
X155939251Y-219439251D03*
X154775000Y-222250000D03*
X155939251Y-225060749D03*
X158750000Y-226225000D03*
X161560749Y-225060749D03*
X162725000Y-222250000D03*
D12*
X158750000Y-222250000D03*
%TD*%
D14*
%TO.C,J14*%
X195580000Y-175260000D03*
D15*
X198120000Y-175260000D03*
X195580000Y-172720000D03*
X198120000Y-172720000D03*
X195580000Y-170180000D03*
X198120000Y-170180000D03*
%TD*%
D11*
%TO.C,U1*%
X254000000Y-154940000D03*
D10*
X254000000Y-157480000D03*
X254000000Y-160020000D03*
X254000000Y-162560000D03*
X254000000Y-165100000D03*
X259080000Y-165100000D03*
X259080000Y-162560000D03*
X259080000Y-160020000D03*
X259080000Y-157480000D03*
X259080000Y-154940000D03*
%TD*%
D16*
%TO.C,U2*%
X246380000Y-205740000D03*
D17*
X248920000Y-205740000D03*
X251460000Y-205740000D03*
X254000000Y-205740000D03*
X256540000Y-205740000D03*
X259080000Y-205740000D03*
X261620000Y-205740000D03*
X264160000Y-205740000D03*
X266700000Y-205740000D03*
X266700000Y-190500000D03*
X264160000Y-190500000D03*
X261620000Y-190500000D03*
X259080000Y-190500000D03*
X256540000Y-190500000D03*
X254000000Y-190500000D03*
X251460000Y-190500000D03*
X248920000Y-190500000D03*
X246380000Y-190500000D03*
%TD*%
D18*
%TO.C,D1*%
X271780000Y-127000000D03*
D19*
X271780000Y-129540000D03*
%TD*%
%TO.C,D2*%
X261620000Y-129540000D03*
D18*
X261620000Y-127000000D03*
%TD*%
D19*
%TO.C,D3*%
X251460000Y-129540000D03*
D18*
X251460000Y-127000000D03*
%TD*%
%TO.C,D4*%
X241300000Y-127000000D03*
D19*
X241300000Y-129540000D03*
%TD*%
D20*
%TO.C,SW6*%
X173510000Y-173910000D03*
D21*
X173510000Y-171910000D03*
X173510000Y-169910000D03*
X173510000Y-167910000D03*
X173510000Y-165910000D03*
X173510000Y-163910000D03*
X171010000Y-173910000D03*
X171010000Y-171910000D03*
X171010000Y-169910000D03*
X171010000Y-167910000D03*
X171010000Y-165910000D03*
X171010000Y-163910000D03*
D22*
X169460000Y-175510000D03*
X175060000Y-162310000D03*
%TD*%
D23*
%TO.C,TP1*%
X208280000Y-201422000D03*
D24*
X208280000Y-195580000D03*
%TD*%
%TO.C,TP2*%
X200660000Y-195580000D03*
D23*
X200660000Y-201422000D03*
%TD*%
%TO.C,TP3*%
X266700000Y-131318000D03*
D24*
X266700000Y-137160000D03*
%TD*%
%TO.C,TP4*%
X256540000Y-137160000D03*
D23*
X256540000Y-131318000D03*
%TD*%
%TO.C,TP5*%
X246380000Y-131318000D03*
D24*
X246380000Y-137160000D03*
%TD*%
%TO.C,TP6*%
X236220000Y-137160000D03*
D23*
X236220000Y-131318000D03*
%TD*%
D24*
%TO.C,TP7*%
X233680000Y-154940000D03*
D23*
X237490000Y-154940000D03*
%TD*%
%TO.C,TP8*%
X237490000Y-158750000D03*
D24*
X233680000Y-158750000D03*
%TD*%
%TO.C,TP9*%
X233680000Y-162560000D03*
D23*
X237490000Y-162560000D03*
%TD*%
%TO.C,TP10*%
X237490000Y-166370000D03*
D24*
X233680000Y-166370000D03*
%TD*%
%TO.C,TP11*%
X233680000Y-170180000D03*
D23*
X237490000Y-170180000D03*
%TD*%
%TO.C,TP12*%
X237490000Y-173990000D03*
D24*
X233680000Y-173990000D03*
%TD*%
%TO.C,TP13*%
X233680000Y-177800000D03*
D23*
X237490000Y-177800000D03*
%TD*%
D24*
%TO.C,TP14*%
X259080000Y-148590000D03*
D23*
X264922000Y-148590000D03*
%TD*%
%TO.C,TP15*%
X233680000Y-184658000D03*
D24*
X233680000Y-190500000D03*
%TD*%
%TO.C,TP16*%
X238760000Y-190500000D03*
D23*
X238760000Y-184658000D03*
%TD*%
%TO.C,TP17*%
X196342000Y-149860000D03*
D24*
X190500000Y-149860000D03*
%TD*%
%TO.C,TP18*%
X180340000Y-149860000D03*
D23*
X186182000Y-149860000D03*
%TD*%
%TO.C,TP19*%
X176022000Y-149860000D03*
D24*
X170180000Y-149860000D03*
%TD*%
%TO.C,TP20*%
X160020000Y-149860000D03*
D23*
X165862000Y-149860000D03*
%TD*%
%TO.C,TP21*%
X192532000Y-196850000D03*
D24*
X186690000Y-196850000D03*
%TD*%
%TO.C,TP22*%
X163830000Y-191770000D03*
D23*
X157988000Y-191770000D03*
%TD*%
%TO.C,TP23*%
X192532000Y-191770000D03*
D24*
X186690000Y-191770000D03*
%TD*%
%TO.C,TP24*%
X163830000Y-196850000D03*
D23*
X157988000Y-196850000D03*
%TD*%
D25*
%TO.C,SW1*%
X160020000Y-139700000D03*
X160020000Y-137160000D03*
D26*
X160020000Y-134620000D03*
%TD*%
%TO.C,SW2*%
X170180000Y-134620000D03*
D25*
X170180000Y-137160000D03*
X170180000Y-139700000D03*
%TD*%
%TO.C,SW3*%
X180340000Y-139700000D03*
X180340000Y-137160000D03*
D26*
X180340000Y-134620000D03*
%TD*%
%TO.C,SW4*%
X190500000Y-134620000D03*
D25*
X190500000Y-137160000D03*
X190500000Y-139700000D03*
%TD*%
M02*
