M48
; DRILL file {KiCad (5.1.10)-1} date 03/27/22 12:36:40
; FORMAT={-:-/ absolute / metric / decimal}
; #@! TF.CreationDate,2022-03-27T12:36:40-04:00
; #@! TF.GenerationSoftware,Kicad,Pcbnew,(5.1.10)-1
; #@! TF.FileFunction,Plated,1,2,PTH
FMAT,2
METRIC
T1C0.400
T2C0.600
T3C0.762
T4C0.800
T5C0.900
T6C1.000
T7C1.000
T8C1.250
T9C1.500
T10C5.300
%
G90
G05
T1
X160.02Y-123.825
X167.005Y-184.785
X167.005Y-203.835
X170.18Y-123.825
X171.45Y-177.8
X175.895Y-169.545
X176.53Y-163.83
X177.8Y-168.91
X179.07Y-177.8
X180.34Y-123.825
X183.515Y-184.785
X183.515Y-203.835
X190.5Y-123.825
X191.77Y-163.83
X195.58Y-155.575
X230.505Y-146.685
X239.03Y-198.12
X239.03Y-204.47
X242.57Y-165.1
X243.205Y-136.082
X243.84Y-211.455
X248.92Y-179.07
X251.46Y-147.574
X253.365Y-136.082
X254.0Y-212.09
X263.525Y-136.082
X273.685Y-136.082
T2
X154.775Y-107.95
X154.775Y-222.25
X155.939Y-105.139
X155.939Y-110.761
X155.939Y-219.439
X155.939Y-225.061
X158.75Y-103.975
X158.75Y-111.925
X158.75Y-218.275
X158.75Y-226.225
X161.561Y-105.139
X161.561Y-110.761
X161.561Y-219.439
X161.561Y-225.061
X162.725Y-107.95
X162.725Y-222.25
X269.075Y-107.95
X269.075Y-222.25
X270.239Y-105.139
X270.239Y-110.761
X270.239Y-219.439
X270.239Y-225.061
X273.05Y-103.975
X273.05Y-111.925
X273.05Y-218.275
X273.05Y-226.225
X275.861Y-105.139
X275.861Y-110.761
X275.861Y-219.439
X275.861Y-225.061
X277.025Y-107.95
X277.025Y-222.25
T3
X160.02Y-134.62
X160.02Y-137.16
X160.02Y-139.7
X165.1Y-194.31
X170.18Y-134.62
X170.18Y-137.16
X170.18Y-139.7
X180.34Y-134.62
X180.34Y-137.16
X180.34Y-139.7
X185.42Y-194.31
X190.5Y-134.62
X190.5Y-137.16
X190.5Y-139.7
T4
X171.01Y-163.91
X171.01Y-165.91
X171.01Y-167.91
X171.01Y-169.91
X171.01Y-171.91
X171.01Y-173.91
X173.51Y-163.91
X173.51Y-165.91
X173.51Y-167.91
X173.51Y-169.91
X173.51Y-171.91
X173.51Y-173.91
X205.74Y-144.78
X205.74Y-147.32
X205.74Y-149.86
X205.74Y-152.4
X205.74Y-154.94
X205.74Y-157.48
X205.74Y-160.02
X205.74Y-162.56
X205.74Y-165.1
X205.74Y-167.64
X205.74Y-170.18
X205.74Y-172.72
X205.74Y-175.26
X205.74Y-177.8
X205.74Y-180.34
X205.74Y-182.88
X226.06Y-154.94
X226.06Y-157.48
X226.06Y-160.02
X226.06Y-162.56
X226.06Y-165.1
X226.06Y-167.64
X226.06Y-170.18
X226.06Y-172.72
X226.06Y-175.26
X226.06Y-177.8
X226.06Y-180.34
X226.06Y-182.88
X254.0Y-154.94
X254.0Y-157.48
X254.0Y-160.02
X254.0Y-162.56
X254.0Y-165.1
X259.08Y-154.94
X259.08Y-157.48
X259.08Y-160.02
X259.08Y-162.56
X259.08Y-165.1
T5
X241.3Y-127.0
X241.3Y-129.54
X251.46Y-127.0
X251.46Y-129.54
X261.62Y-127.0
X261.62Y-129.54
X271.78Y-127.0
X271.78Y-129.54
T6
X157.988Y-191.77
X157.988Y-196.85
X165.862Y-149.86
X176.022Y-149.86
X186.182Y-149.86
X192.532Y-191.77
X192.532Y-196.85
X196.342Y-149.86
X200.66Y-201.422
X208.28Y-201.422
X233.68Y-184.658
X236.22Y-131.318
X237.49Y-154.94
X237.49Y-158.75
X237.49Y-162.56
X237.49Y-166.37
X237.49Y-170.18
X237.49Y-173.99
X237.49Y-177.8
X238.76Y-184.658
X246.38Y-131.318
X256.54Y-131.318
X264.922Y-148.59
X266.7Y-131.318
T7
X195.58Y-170.18
X195.58Y-172.72
X195.58Y-175.26
X198.12Y-170.18
X198.12Y-172.72
X198.12Y-175.26
X246.38Y-190.5
X246.38Y-205.74
X248.92Y-190.5
X248.92Y-205.74
X251.46Y-190.5
X251.46Y-205.74
X254.0Y-190.5
X254.0Y-205.74
X256.54Y-190.5
X256.54Y-205.74
X259.08Y-190.5
X259.08Y-205.74
X261.62Y-190.5
X261.62Y-205.74
X264.16Y-190.5
X264.16Y-205.74
X266.7Y-190.5
X266.7Y-205.74
T8
X169.46Y-175.51
X175.06Y-162.31
T9
X160.02Y-149.86
X163.83Y-191.77
X163.83Y-196.85
X170.18Y-149.86
X180.34Y-149.86
X186.69Y-191.77
X186.69Y-196.85
X190.5Y-149.86
X200.66Y-195.58
X208.28Y-195.58
X233.68Y-154.94
X233.68Y-158.75
X233.68Y-162.56
X233.68Y-166.37
X233.68Y-170.18
X233.68Y-173.99
X233.68Y-177.8
X233.68Y-190.5
X236.22Y-137.16
X238.76Y-190.5
X246.38Y-137.16
X256.54Y-137.16
X259.08Y-148.59
X266.7Y-137.16
T10
X158.75Y-107.95
X158.75Y-222.25
X273.05Y-107.95
X273.05Y-222.25
T0
M30
