G04 #@! TF.GenerationSoftware,KiCad,Pcbnew,(6.0.7)*
G04 #@! TF.CreationDate,2022-11-10T17:29:02-05:00*
G04 #@! TF.ProjectId,M5TC-2022-U4BN,4d355443-2d32-4303-9232-2d5534424e2e,rev?*
G04 #@! TF.SameCoordinates,Original*
G04 #@! TF.FileFunction,Paste,Top*
G04 #@! TF.FilePolarity,Positive*
%FSLAX46Y46*%
G04 Gerber Fmt 4.6, Leading zero omitted, Abs format (unit mm)*
G04 Created by KiCad (PCBNEW (6.0.7)) date 2022-11-10 17:29:02*
%MOMM*%
%LPD*%
G01*
G04 APERTURE LIST*
G04 Aperture macros list*
%AMRoundRect*
0 Rectangle with rounded corners*
0 $1 Rounding radius*
0 $2 $3 $4 $5 $6 $7 $8 $9 X,Y pos of 4 corners*
0 Add a 4 corners polygon primitive as box body*
4,1,4,$2,$3,$4,$5,$6,$7,$8,$9,$2,$3,0*
0 Add four circle primitives for the rounded corners*
1,1,$1+$1,$2,$3*
1,1,$1+$1,$4,$5*
1,1,$1+$1,$6,$7*
1,1,$1+$1,$8,$9*
0 Add four rect primitives between the rounded corners*
20,1,$1+$1,$2,$3,$4,$5,0*
20,1,$1+$1,$4,$5,$6,$7,0*
20,1,$1+$1,$6,$7,$8,$9,0*
20,1,$1+$1,$8,$9,$2,$3,0*%
G04 Aperture macros list end*
%ADD10RoundRect,0.249999X0.625001X-0.312501X0.625001X0.312501X-0.625001X0.312501X-0.625001X-0.312501X0*%
%ADD11RoundRect,0.249999X-0.625001X0.312501X-0.625001X-0.312501X0.625001X-0.312501X0.625001X0.312501X0*%
%ADD12R,0.800000X0.900000*%
%ADD13R,0.900000X0.800000*%
%ADD14RoundRect,0.249999X-0.312501X-0.625001X0.312501X-0.625001X0.312501X0.625001X-0.312501X0.625001X0*%
%ADD15RoundRect,0.249999X0.312501X0.625001X-0.312501X0.625001X-0.312501X-0.625001X0.312501X-0.625001X0*%
%ADD16RoundRect,0.624998X-1.374998X0.624999X-1.374998X-0.624999X1.374998X-0.624999X1.374998X0.624999X0*%
%ADD17RoundRect,0.624998X1.374998X-0.624999X1.374998X0.624999X-1.374998X0.624999X-1.374998X-0.624999X0*%
%ADD18RoundRect,0.624998X-0.624999X-1.374998X0.624999X-1.374998X0.624999X1.374998X-0.624999X1.374998X0*%
%ADD19RoundRect,0.624998X0.624999X1.374998X-0.624999X1.374998X-0.624999X-1.374998X0.624999X-1.374998X0*%
%ADD20R,2.600000X1.200000*%
G04 APERTURE END LIST*
D10*
X160020000Y-128462500D03*
X160020000Y-125537500D03*
X170180000Y-128462500D03*
X170180000Y-125537500D03*
X180340000Y-128462500D03*
X180340000Y-125537500D03*
X190500000Y-128462500D03*
X190500000Y-125537500D03*
D11*
X271780000Y-133157500D03*
X271780000Y-136082500D03*
X261620000Y-133157500D03*
X261620000Y-136082500D03*
X251460000Y-133157500D03*
X251460000Y-136082500D03*
X241300000Y-133157500D03*
X241300000Y-136082500D03*
D10*
X183515000Y-204662500D03*
X183515000Y-201737500D03*
D11*
X167005000Y-183957500D03*
X167005000Y-186882500D03*
D10*
X183515000Y-186882500D03*
X183515000Y-183957500D03*
X167005000Y-204662500D03*
X167005000Y-201737500D03*
D12*
X254950000Y-147590000D03*
X253050000Y-147590000D03*
X254000000Y-149590000D03*
D13*
X239030000Y-194630000D03*
X239030000Y-196530000D03*
X241030000Y-195580000D03*
X239030000Y-200980000D03*
X239030000Y-202880000D03*
X241030000Y-201930000D03*
D14*
X262697500Y-154940000D03*
X265622500Y-154940000D03*
X262697500Y-157480000D03*
X265622500Y-157480000D03*
X262697500Y-160020000D03*
X265622500Y-160020000D03*
D15*
X250382500Y-165100000D03*
X247457500Y-165100000D03*
X250382500Y-162560000D03*
X247457500Y-162560000D03*
X250382500Y-157480000D03*
X247457500Y-157480000D03*
X250382500Y-160020000D03*
X247457500Y-160020000D03*
D10*
X251460000Y-186882500D03*
X251460000Y-183957500D03*
X254000000Y-186882500D03*
X254000000Y-183957500D03*
D11*
X251460000Y-209357500D03*
X251460000Y-212282500D03*
X248920000Y-209357500D03*
X248920000Y-212282500D03*
X246380000Y-209357500D03*
X246380000Y-212282500D03*
D10*
X246380000Y-186882500D03*
X246380000Y-183957500D03*
X248920000Y-186882500D03*
X248920000Y-183957500D03*
D11*
X264160000Y-183957500D03*
X264160000Y-186882500D03*
X266700000Y-183957500D03*
X266700000Y-186882500D03*
D10*
X264160000Y-212282500D03*
X264160000Y-209357500D03*
X259080000Y-212282500D03*
X259080000Y-209357500D03*
X256540000Y-212282500D03*
X256540000Y-209357500D03*
D11*
X261620000Y-183957500D03*
X261620000Y-186882500D03*
D10*
X261620000Y-212282500D03*
X261620000Y-209357500D03*
D16*
X208915000Y-198882000D03*
X200660000Y-198882000D03*
D17*
X266700000Y-133858000D03*
X256540000Y-133858000D03*
X246380000Y-133858000D03*
X236220000Y-133858000D03*
D18*
X262382000Y-148590000D03*
D17*
X238760000Y-186690000D03*
X232410000Y-186690000D03*
D18*
X193802000Y-149860000D03*
X183642000Y-149860000D03*
X173482000Y-149860000D03*
X163322000Y-149860000D03*
X189992000Y-196850000D03*
D19*
X160528000Y-191770000D03*
D18*
X189992000Y-191770000D03*
D19*
X160528000Y-196850000D03*
D20*
X180975000Y-196810000D03*
X169545000Y-191730000D03*
X180975000Y-191730000D03*
X169545000Y-196810000D03*
X169545000Y-194270000D03*
X180975000Y-194270000D03*
M02*
