%TF.GenerationSoftware,KiCad,Pcbnew,(5.1.10)-1*%
%TF.CreationDate,2022-03-27T12:35:49-04:00*%
%TF.ProjectId,M5TC-2022-U4BN,4d355443-2d32-4303-9232-2d5534424e2e,rev?*%
%TF.SameCoordinates,Original*%
%TF.FileFunction,Soldermask,Top*%
%TF.FilePolarity,Negative*%
%FSLAX46Y46*%
G04 Gerber Fmt 4.6, Leading zero omitted, Abs format (unit mm)*
G04 Created by KiCad (PCBNEW (5.1.10)-1) date 2022-03-27 12:35:49*
%MOMM*%
%LPD*%
G01*
G04 APERTURE LIST*
%ADD10C,1.600000*%
%ADD11R,1.600000X1.600000*%
%ADD12C,10.600000*%
%ADD13C,0.900000*%
%ADD14R,2.600000X1.200000*%
%ADD15R,1.700000X1.700000*%
%ADD16O,1.700000X1.700000*%
%ADD17R,0.800000X0.900000*%
%ADD18R,0.900000X0.800000*%
%ADD19R,1.500000X1.500000*%
%ADD20C,1.500000*%
%ADD21C,1.800000*%
%ADD22R,1.800000X1.800000*%
%ADD23R,1.300000X1.300000*%
%ADD24C,1.300000*%
%ADD25C,1.900000*%
%ADD26C,1.499997*%
%ADD27C,1.999996*%
%ADD28C,1.524000*%
%ADD29R,1.524000X1.524000*%
G04 APERTURE END LIST*
D10*
%TO.C,A1*%
X205740000Y-182880000D03*
X205740000Y-180340000D03*
X205740000Y-177800000D03*
X205740000Y-175260000D03*
X205740000Y-172720000D03*
X205740000Y-170180000D03*
X205740000Y-167640000D03*
X205740000Y-165100000D03*
X205740000Y-162560000D03*
X205740000Y-160020000D03*
X205740000Y-157480000D03*
X205740000Y-154940000D03*
X205740000Y-152400000D03*
X205740000Y-149860000D03*
X205740000Y-147320000D03*
D11*
X205740000Y-144780000D03*
D10*
X226060000Y-154940000D03*
X226060000Y-157480000D03*
X226060000Y-160020000D03*
X226060000Y-162560000D03*
X226060000Y-165100000D03*
X226060000Y-167640000D03*
X226060000Y-170180000D03*
X226060000Y-172720000D03*
X226060000Y-175260000D03*
X226060000Y-177800000D03*
X226060000Y-180340000D03*
X226060000Y-182880000D03*
%TD*%
D12*
%TO.C,H4*%
X158750000Y-107950000D03*
D13*
X162725000Y-107950000D03*
X161560749Y-110760749D03*
X158750000Y-111925000D03*
X155939251Y-110760749D03*
X154775000Y-107950000D03*
X155939251Y-105139251D03*
X158750000Y-103975000D03*
X161560749Y-105139251D03*
%TD*%
%TO.C,R1*%
G36*
G01*
X160645001Y-126100000D02*
X159394999Y-126100000D01*
G75*
G02*
X159145000Y-125850001I0J249999D01*
G01*
X159145000Y-125224999D01*
G75*
G02*
X159394999Y-124975000I249999J0D01*
G01*
X160645001Y-124975000D01*
G75*
G02*
X160895000Y-125224999I0J-249999D01*
G01*
X160895000Y-125850001D01*
G75*
G02*
X160645001Y-126100000I-249999J0D01*
G01*
G37*
G36*
G01*
X160645001Y-129025000D02*
X159394999Y-129025000D01*
G75*
G02*
X159145000Y-128775001I0J249999D01*
G01*
X159145000Y-128149999D01*
G75*
G02*
X159394999Y-127900000I249999J0D01*
G01*
X160645001Y-127900000D01*
G75*
G02*
X160895000Y-128149999I0J-249999D01*
G01*
X160895000Y-128775001D01*
G75*
G02*
X160645001Y-129025000I-249999J0D01*
G01*
G37*
%TD*%
%TO.C,R2*%
G36*
G01*
X170805001Y-129025000D02*
X169554999Y-129025000D01*
G75*
G02*
X169305000Y-128775001I0J249999D01*
G01*
X169305000Y-128149999D01*
G75*
G02*
X169554999Y-127900000I249999J0D01*
G01*
X170805001Y-127900000D01*
G75*
G02*
X171055000Y-128149999I0J-249999D01*
G01*
X171055000Y-128775001D01*
G75*
G02*
X170805001Y-129025000I-249999J0D01*
G01*
G37*
G36*
G01*
X170805001Y-126100000D02*
X169554999Y-126100000D01*
G75*
G02*
X169305000Y-125850001I0J249999D01*
G01*
X169305000Y-125224999D01*
G75*
G02*
X169554999Y-124975000I249999J0D01*
G01*
X170805001Y-124975000D01*
G75*
G02*
X171055000Y-125224999I0J-249999D01*
G01*
X171055000Y-125850001D01*
G75*
G02*
X170805001Y-126100000I-249999J0D01*
G01*
G37*
%TD*%
%TO.C,R3*%
G36*
G01*
X180965001Y-126100000D02*
X179714999Y-126100000D01*
G75*
G02*
X179465000Y-125850001I0J249999D01*
G01*
X179465000Y-125224999D01*
G75*
G02*
X179714999Y-124975000I249999J0D01*
G01*
X180965001Y-124975000D01*
G75*
G02*
X181215000Y-125224999I0J-249999D01*
G01*
X181215000Y-125850001D01*
G75*
G02*
X180965001Y-126100000I-249999J0D01*
G01*
G37*
G36*
G01*
X180965001Y-129025000D02*
X179714999Y-129025000D01*
G75*
G02*
X179465000Y-128775001I0J249999D01*
G01*
X179465000Y-128149999D01*
G75*
G02*
X179714999Y-127900000I249999J0D01*
G01*
X180965001Y-127900000D01*
G75*
G02*
X181215000Y-128149999I0J-249999D01*
G01*
X181215000Y-128775001D01*
G75*
G02*
X180965001Y-129025000I-249999J0D01*
G01*
G37*
%TD*%
%TO.C,R4*%
G36*
G01*
X191125001Y-129025000D02*
X189874999Y-129025000D01*
G75*
G02*
X189625000Y-128775001I0J249999D01*
G01*
X189625000Y-128149999D01*
G75*
G02*
X189874999Y-127900000I249999J0D01*
G01*
X191125001Y-127900000D01*
G75*
G02*
X191375000Y-128149999I0J-249999D01*
G01*
X191375000Y-128775001D01*
G75*
G02*
X191125001Y-129025000I-249999J0D01*
G01*
G37*
G36*
G01*
X191125001Y-126100000D02*
X189874999Y-126100000D01*
G75*
G02*
X189625000Y-125850001I0J249999D01*
G01*
X189625000Y-125224999D01*
G75*
G02*
X189874999Y-124975000I249999J0D01*
G01*
X191125001Y-124975000D01*
G75*
G02*
X191375000Y-125224999I0J-249999D01*
G01*
X191375000Y-125850001D01*
G75*
G02*
X191125001Y-126100000I-249999J0D01*
G01*
G37*
%TD*%
%TO.C,R5*%
G36*
G01*
X271154999Y-135520000D02*
X272405001Y-135520000D01*
G75*
G02*
X272655000Y-135769999I0J-249999D01*
G01*
X272655000Y-136395001D01*
G75*
G02*
X272405001Y-136645000I-249999J0D01*
G01*
X271154999Y-136645000D01*
G75*
G02*
X270905000Y-136395001I0J249999D01*
G01*
X270905000Y-135769999D01*
G75*
G02*
X271154999Y-135520000I249999J0D01*
G01*
G37*
G36*
G01*
X271154999Y-132595000D02*
X272405001Y-132595000D01*
G75*
G02*
X272655000Y-132844999I0J-249999D01*
G01*
X272655000Y-133470001D01*
G75*
G02*
X272405001Y-133720000I-249999J0D01*
G01*
X271154999Y-133720000D01*
G75*
G02*
X270905000Y-133470001I0J249999D01*
G01*
X270905000Y-132844999D01*
G75*
G02*
X271154999Y-132595000I249999J0D01*
G01*
G37*
%TD*%
%TO.C,R6*%
G36*
G01*
X260994999Y-132595000D02*
X262245001Y-132595000D01*
G75*
G02*
X262495000Y-132844999I0J-249999D01*
G01*
X262495000Y-133470001D01*
G75*
G02*
X262245001Y-133720000I-249999J0D01*
G01*
X260994999Y-133720000D01*
G75*
G02*
X260745000Y-133470001I0J249999D01*
G01*
X260745000Y-132844999D01*
G75*
G02*
X260994999Y-132595000I249999J0D01*
G01*
G37*
G36*
G01*
X260994999Y-135520000D02*
X262245001Y-135520000D01*
G75*
G02*
X262495000Y-135769999I0J-249999D01*
G01*
X262495000Y-136395001D01*
G75*
G02*
X262245001Y-136645000I-249999J0D01*
G01*
X260994999Y-136645000D01*
G75*
G02*
X260745000Y-136395001I0J249999D01*
G01*
X260745000Y-135769999D01*
G75*
G02*
X260994999Y-135520000I249999J0D01*
G01*
G37*
%TD*%
%TO.C,R7*%
G36*
G01*
X250834999Y-132595000D02*
X252085001Y-132595000D01*
G75*
G02*
X252335000Y-132844999I0J-249999D01*
G01*
X252335000Y-133470001D01*
G75*
G02*
X252085001Y-133720000I-249999J0D01*
G01*
X250834999Y-133720000D01*
G75*
G02*
X250585000Y-133470001I0J249999D01*
G01*
X250585000Y-132844999D01*
G75*
G02*
X250834999Y-132595000I249999J0D01*
G01*
G37*
G36*
G01*
X250834999Y-135520000D02*
X252085001Y-135520000D01*
G75*
G02*
X252335000Y-135769999I0J-249999D01*
G01*
X252335000Y-136395001D01*
G75*
G02*
X252085001Y-136645000I-249999J0D01*
G01*
X250834999Y-136645000D01*
G75*
G02*
X250585000Y-136395001I0J249999D01*
G01*
X250585000Y-135769999D01*
G75*
G02*
X250834999Y-135520000I249999J0D01*
G01*
G37*
%TD*%
%TO.C,R8*%
G36*
G01*
X240674999Y-135520000D02*
X241925001Y-135520000D01*
G75*
G02*
X242175000Y-135769999I0J-249999D01*
G01*
X242175000Y-136395001D01*
G75*
G02*
X241925001Y-136645000I-249999J0D01*
G01*
X240674999Y-136645000D01*
G75*
G02*
X240425000Y-136395001I0J249999D01*
G01*
X240425000Y-135769999D01*
G75*
G02*
X240674999Y-135520000I249999J0D01*
G01*
G37*
G36*
G01*
X240674999Y-132595000D02*
X241925001Y-132595000D01*
G75*
G02*
X242175000Y-132844999I0J-249999D01*
G01*
X242175000Y-133470001D01*
G75*
G02*
X241925001Y-133720000I-249999J0D01*
G01*
X240674999Y-133720000D01*
G75*
G02*
X240425000Y-133470001I0J249999D01*
G01*
X240425000Y-132844999D01*
G75*
G02*
X240674999Y-132595000I249999J0D01*
G01*
G37*
%TD*%
%TO.C,R9*%
G36*
G01*
X184140001Y-199760000D02*
X182889999Y-199760000D01*
G75*
G02*
X182640000Y-199510001I0J249999D01*
G01*
X182640000Y-198884999D01*
G75*
G02*
X182889999Y-198635000I249999J0D01*
G01*
X184140001Y-198635000D01*
G75*
G02*
X184390000Y-198884999I0J-249999D01*
G01*
X184390000Y-199510001D01*
G75*
G02*
X184140001Y-199760000I-249999J0D01*
G01*
G37*
G36*
G01*
X184140001Y-202685000D02*
X182889999Y-202685000D01*
G75*
G02*
X182640000Y-202435001I0J249999D01*
G01*
X182640000Y-201809999D01*
G75*
G02*
X182889999Y-201560000I249999J0D01*
G01*
X184140001Y-201560000D01*
G75*
G02*
X184390000Y-201809999I0J-249999D01*
G01*
X184390000Y-202435001D01*
G75*
G02*
X184140001Y-202685000I-249999J0D01*
G01*
G37*
%TD*%
%TO.C,R10*%
G36*
G01*
X166379999Y-185935000D02*
X167630001Y-185935000D01*
G75*
G02*
X167880000Y-186184999I0J-249999D01*
G01*
X167880000Y-186810001D01*
G75*
G02*
X167630001Y-187060000I-249999J0D01*
G01*
X166379999Y-187060000D01*
G75*
G02*
X166130000Y-186810001I0J249999D01*
G01*
X166130000Y-186184999D01*
G75*
G02*
X166379999Y-185935000I249999J0D01*
G01*
G37*
G36*
G01*
X166379999Y-188860000D02*
X167630001Y-188860000D01*
G75*
G02*
X167880000Y-189109999I0J-249999D01*
G01*
X167880000Y-189735001D01*
G75*
G02*
X167630001Y-189985000I-249999J0D01*
G01*
X166379999Y-189985000D01*
G75*
G02*
X166130000Y-189735001I0J249999D01*
G01*
X166130000Y-189109999D01*
G75*
G02*
X166379999Y-188860000I249999J0D01*
G01*
G37*
%TD*%
%TO.C,R11*%
G36*
G01*
X184140001Y-187060000D02*
X182889999Y-187060000D01*
G75*
G02*
X182640000Y-186810001I0J249999D01*
G01*
X182640000Y-186184999D01*
G75*
G02*
X182889999Y-185935000I249999J0D01*
G01*
X184140001Y-185935000D01*
G75*
G02*
X184390000Y-186184999I0J-249999D01*
G01*
X184390000Y-186810001D01*
G75*
G02*
X184140001Y-187060000I-249999J0D01*
G01*
G37*
G36*
G01*
X184140001Y-189985000D02*
X182889999Y-189985000D01*
G75*
G02*
X182640000Y-189735001I0J249999D01*
G01*
X182640000Y-189109999D01*
G75*
G02*
X182889999Y-188860000I249999J0D01*
G01*
X184140001Y-188860000D01*
G75*
G02*
X184390000Y-189109999I0J-249999D01*
G01*
X184390000Y-189735001D01*
G75*
G02*
X184140001Y-189985000I-249999J0D01*
G01*
G37*
%TD*%
%TO.C,R12*%
G36*
G01*
X167630001Y-202685000D02*
X166379999Y-202685000D01*
G75*
G02*
X166130000Y-202435001I0J249999D01*
G01*
X166130000Y-201809999D01*
G75*
G02*
X166379999Y-201560000I249999J0D01*
G01*
X167630001Y-201560000D01*
G75*
G02*
X167880000Y-201809999I0J-249999D01*
G01*
X167880000Y-202435001D01*
G75*
G02*
X167630001Y-202685000I-249999J0D01*
G01*
G37*
G36*
G01*
X167630001Y-199760000D02*
X166379999Y-199760000D01*
G75*
G02*
X166130000Y-199510001I0J249999D01*
G01*
X166130000Y-198884999D01*
G75*
G02*
X166379999Y-198635000I249999J0D01*
G01*
X167630001Y-198635000D01*
G75*
G02*
X167880000Y-198884999I0J-249999D01*
G01*
X167880000Y-199510001D01*
G75*
G02*
X167630001Y-199760000I-249999J0D01*
G01*
G37*
%TD*%
D12*
%TO.C,H1*%
X273050000Y-222250000D03*
D13*
X277025000Y-222250000D03*
X275860749Y-225060749D03*
X273050000Y-226225000D03*
X270239251Y-225060749D03*
X269075000Y-222250000D03*
X270239251Y-219439251D03*
X273050000Y-218275000D03*
X275860749Y-219439251D03*
%TD*%
%TO.C,H2*%
X275860749Y-105139251D03*
X273050000Y-103975000D03*
X270239251Y-105139251D03*
X269075000Y-107950000D03*
X270239251Y-110760749D03*
X273050000Y-111925000D03*
X275860749Y-110760749D03*
X277025000Y-107950000D03*
D12*
X273050000Y-107950000D03*
%TD*%
D13*
%TO.C,H3*%
X161560749Y-219439251D03*
X158750000Y-218275000D03*
X155939251Y-219439251D03*
X154775000Y-222250000D03*
X155939251Y-225060749D03*
X158750000Y-226225000D03*
X161560749Y-225060749D03*
X162725000Y-222250000D03*
D12*
X158750000Y-222250000D03*
%TD*%
D14*
%TO.C,SW5*%
X167960000Y-196850000D03*
X182560000Y-196850000D03*
X167960000Y-194310000D03*
X182560000Y-194310000D03*
X167960000Y-191770000D03*
X182560000Y-191770000D03*
%TD*%
D15*
%TO.C,J14*%
X195580000Y-175260000D03*
D16*
X198120000Y-175260000D03*
X195580000Y-172720000D03*
X198120000Y-172720000D03*
X195580000Y-170180000D03*
X198120000Y-170180000D03*
%TD*%
D17*
%TO.C,Q1*%
X254950000Y-147590000D03*
X253050000Y-147590000D03*
X254000000Y-149590000D03*
%TD*%
D18*
%TO.C,Q2*%
X241030000Y-195580000D03*
X239030000Y-196530000D03*
X239030000Y-194630000D03*
%TD*%
%TO.C,Q3*%
X239030000Y-200980000D03*
X239030000Y-202880000D03*
X241030000Y-201930000D03*
%TD*%
%TO.C,R13*%
G36*
G01*
X262135000Y-155565001D02*
X262135000Y-154314999D01*
G75*
G02*
X262384999Y-154065000I249999J0D01*
G01*
X263010001Y-154065000D01*
G75*
G02*
X263260000Y-154314999I0J-249999D01*
G01*
X263260000Y-155565001D01*
G75*
G02*
X263010001Y-155815000I-249999J0D01*
G01*
X262384999Y-155815000D01*
G75*
G02*
X262135000Y-155565001I0J249999D01*
G01*
G37*
G36*
G01*
X265060000Y-155565001D02*
X265060000Y-154314999D01*
G75*
G02*
X265309999Y-154065000I249999J0D01*
G01*
X265935001Y-154065000D01*
G75*
G02*
X266185000Y-154314999I0J-249999D01*
G01*
X266185000Y-155565001D01*
G75*
G02*
X265935001Y-155815000I-249999J0D01*
G01*
X265309999Y-155815000D01*
G75*
G02*
X265060000Y-155565001I0J249999D01*
G01*
G37*
%TD*%
%TO.C,R14*%
G36*
G01*
X265060000Y-158105001D02*
X265060000Y-156854999D01*
G75*
G02*
X265309999Y-156605000I249999J0D01*
G01*
X265935001Y-156605000D01*
G75*
G02*
X266185000Y-156854999I0J-249999D01*
G01*
X266185000Y-158105001D01*
G75*
G02*
X265935001Y-158355000I-249999J0D01*
G01*
X265309999Y-158355000D01*
G75*
G02*
X265060000Y-158105001I0J249999D01*
G01*
G37*
G36*
G01*
X262135000Y-158105001D02*
X262135000Y-156854999D01*
G75*
G02*
X262384999Y-156605000I249999J0D01*
G01*
X263010001Y-156605000D01*
G75*
G02*
X263260000Y-156854999I0J-249999D01*
G01*
X263260000Y-158105001D01*
G75*
G02*
X263010001Y-158355000I-249999J0D01*
G01*
X262384999Y-158355000D01*
G75*
G02*
X262135000Y-158105001I0J249999D01*
G01*
G37*
%TD*%
%TO.C,R15*%
G36*
G01*
X265060000Y-160645001D02*
X265060000Y-159394999D01*
G75*
G02*
X265309999Y-159145000I249999J0D01*
G01*
X265935001Y-159145000D01*
G75*
G02*
X266185000Y-159394999I0J-249999D01*
G01*
X266185000Y-160645001D01*
G75*
G02*
X265935001Y-160895000I-249999J0D01*
G01*
X265309999Y-160895000D01*
G75*
G02*
X265060000Y-160645001I0J249999D01*
G01*
G37*
G36*
G01*
X262135000Y-160645001D02*
X262135000Y-159394999D01*
G75*
G02*
X262384999Y-159145000I249999J0D01*
G01*
X263010001Y-159145000D01*
G75*
G02*
X263260000Y-159394999I0J-249999D01*
G01*
X263260000Y-160645001D01*
G75*
G02*
X263010001Y-160895000I-249999J0D01*
G01*
X262384999Y-160895000D01*
G75*
G02*
X262135000Y-160645001I0J249999D01*
G01*
G37*
%TD*%
%TO.C,R16*%
G36*
G01*
X250945000Y-164474999D02*
X250945000Y-165725001D01*
G75*
G02*
X250695001Y-165975000I-249999J0D01*
G01*
X250069999Y-165975000D01*
G75*
G02*
X249820000Y-165725001I0J249999D01*
G01*
X249820000Y-164474999D01*
G75*
G02*
X250069999Y-164225000I249999J0D01*
G01*
X250695001Y-164225000D01*
G75*
G02*
X250945000Y-164474999I0J-249999D01*
G01*
G37*
G36*
G01*
X248020000Y-164474999D02*
X248020000Y-165725001D01*
G75*
G02*
X247770001Y-165975000I-249999J0D01*
G01*
X247144999Y-165975000D01*
G75*
G02*
X246895000Y-165725001I0J249999D01*
G01*
X246895000Y-164474999D01*
G75*
G02*
X247144999Y-164225000I249999J0D01*
G01*
X247770001Y-164225000D01*
G75*
G02*
X248020000Y-164474999I0J-249999D01*
G01*
G37*
%TD*%
%TO.C,R17*%
G36*
G01*
X248020000Y-161934999D02*
X248020000Y-163185001D01*
G75*
G02*
X247770001Y-163435000I-249999J0D01*
G01*
X247144999Y-163435000D01*
G75*
G02*
X246895000Y-163185001I0J249999D01*
G01*
X246895000Y-161934999D01*
G75*
G02*
X247144999Y-161685000I249999J0D01*
G01*
X247770001Y-161685000D01*
G75*
G02*
X248020000Y-161934999I0J-249999D01*
G01*
G37*
G36*
G01*
X250945000Y-161934999D02*
X250945000Y-163185001D01*
G75*
G02*
X250695001Y-163435000I-249999J0D01*
G01*
X250069999Y-163435000D01*
G75*
G02*
X249820000Y-163185001I0J249999D01*
G01*
X249820000Y-161934999D01*
G75*
G02*
X250069999Y-161685000I249999J0D01*
G01*
X250695001Y-161685000D01*
G75*
G02*
X250945000Y-161934999I0J-249999D01*
G01*
G37*
%TD*%
%TO.C,R18*%
G36*
G01*
X250945000Y-156854999D02*
X250945000Y-158105001D01*
G75*
G02*
X250695001Y-158355000I-249999J0D01*
G01*
X250069999Y-158355000D01*
G75*
G02*
X249820000Y-158105001I0J249999D01*
G01*
X249820000Y-156854999D01*
G75*
G02*
X250069999Y-156605000I249999J0D01*
G01*
X250695001Y-156605000D01*
G75*
G02*
X250945000Y-156854999I0J-249999D01*
G01*
G37*
G36*
G01*
X248020000Y-156854999D02*
X248020000Y-158105001D01*
G75*
G02*
X247770001Y-158355000I-249999J0D01*
G01*
X247144999Y-158355000D01*
G75*
G02*
X246895000Y-158105001I0J249999D01*
G01*
X246895000Y-156854999D01*
G75*
G02*
X247144999Y-156605000I249999J0D01*
G01*
X247770001Y-156605000D01*
G75*
G02*
X248020000Y-156854999I0J-249999D01*
G01*
G37*
%TD*%
%TO.C,R19*%
G36*
G01*
X248020000Y-159394999D02*
X248020000Y-160645001D01*
G75*
G02*
X247770001Y-160895000I-249999J0D01*
G01*
X247144999Y-160895000D01*
G75*
G02*
X246895000Y-160645001I0J249999D01*
G01*
X246895000Y-159394999D01*
G75*
G02*
X247144999Y-159145000I249999J0D01*
G01*
X247770001Y-159145000D01*
G75*
G02*
X248020000Y-159394999I0J-249999D01*
G01*
G37*
G36*
G01*
X250945000Y-159394999D02*
X250945000Y-160645001D01*
G75*
G02*
X250695001Y-160895000I-249999J0D01*
G01*
X250069999Y-160895000D01*
G75*
G02*
X249820000Y-160645001I0J249999D01*
G01*
X249820000Y-159394999D01*
G75*
G02*
X250069999Y-159145000I249999J0D01*
G01*
X250695001Y-159145000D01*
G75*
G02*
X250945000Y-159394999I0J-249999D01*
G01*
G37*
%TD*%
%TO.C,R20*%
G36*
G01*
X252085001Y-187445000D02*
X250834999Y-187445000D01*
G75*
G02*
X250585000Y-187195001I0J249999D01*
G01*
X250585000Y-186569999D01*
G75*
G02*
X250834999Y-186320000I249999J0D01*
G01*
X252085001Y-186320000D01*
G75*
G02*
X252335000Y-186569999I0J-249999D01*
G01*
X252335000Y-187195001D01*
G75*
G02*
X252085001Y-187445000I-249999J0D01*
G01*
G37*
G36*
G01*
X252085001Y-184520000D02*
X250834999Y-184520000D01*
G75*
G02*
X250585000Y-184270001I0J249999D01*
G01*
X250585000Y-183644999D01*
G75*
G02*
X250834999Y-183395000I249999J0D01*
G01*
X252085001Y-183395000D01*
G75*
G02*
X252335000Y-183644999I0J-249999D01*
G01*
X252335000Y-184270001D01*
G75*
G02*
X252085001Y-184520000I-249999J0D01*
G01*
G37*
%TD*%
%TO.C,R21*%
G36*
G01*
X254625001Y-184520000D02*
X253374999Y-184520000D01*
G75*
G02*
X253125000Y-184270001I0J249999D01*
G01*
X253125000Y-183644999D01*
G75*
G02*
X253374999Y-183395000I249999J0D01*
G01*
X254625001Y-183395000D01*
G75*
G02*
X254875000Y-183644999I0J-249999D01*
G01*
X254875000Y-184270001D01*
G75*
G02*
X254625001Y-184520000I-249999J0D01*
G01*
G37*
G36*
G01*
X254625001Y-187445000D02*
X253374999Y-187445000D01*
G75*
G02*
X253125000Y-187195001I0J249999D01*
G01*
X253125000Y-186569999D01*
G75*
G02*
X253374999Y-186320000I249999J0D01*
G01*
X254625001Y-186320000D01*
G75*
G02*
X254875000Y-186569999I0J-249999D01*
G01*
X254875000Y-187195001D01*
G75*
G02*
X254625001Y-187445000I-249999J0D01*
G01*
G37*
%TD*%
%TO.C,R22*%
G36*
G01*
X250834999Y-208795000D02*
X252085001Y-208795000D01*
G75*
G02*
X252335000Y-209044999I0J-249999D01*
G01*
X252335000Y-209670001D01*
G75*
G02*
X252085001Y-209920000I-249999J0D01*
G01*
X250834999Y-209920000D01*
G75*
G02*
X250585000Y-209670001I0J249999D01*
G01*
X250585000Y-209044999D01*
G75*
G02*
X250834999Y-208795000I249999J0D01*
G01*
G37*
G36*
G01*
X250834999Y-211720000D02*
X252085001Y-211720000D01*
G75*
G02*
X252335000Y-211969999I0J-249999D01*
G01*
X252335000Y-212595001D01*
G75*
G02*
X252085001Y-212845000I-249999J0D01*
G01*
X250834999Y-212845000D01*
G75*
G02*
X250585000Y-212595001I0J249999D01*
G01*
X250585000Y-211969999D01*
G75*
G02*
X250834999Y-211720000I249999J0D01*
G01*
G37*
%TD*%
%TO.C,R23*%
G36*
G01*
X248294999Y-211720000D02*
X249545001Y-211720000D01*
G75*
G02*
X249795000Y-211969999I0J-249999D01*
G01*
X249795000Y-212595001D01*
G75*
G02*
X249545001Y-212845000I-249999J0D01*
G01*
X248294999Y-212845000D01*
G75*
G02*
X248045000Y-212595001I0J249999D01*
G01*
X248045000Y-211969999D01*
G75*
G02*
X248294999Y-211720000I249999J0D01*
G01*
G37*
G36*
G01*
X248294999Y-208795000D02*
X249545001Y-208795000D01*
G75*
G02*
X249795000Y-209044999I0J-249999D01*
G01*
X249795000Y-209670001D01*
G75*
G02*
X249545001Y-209920000I-249999J0D01*
G01*
X248294999Y-209920000D01*
G75*
G02*
X248045000Y-209670001I0J249999D01*
G01*
X248045000Y-209044999D01*
G75*
G02*
X248294999Y-208795000I249999J0D01*
G01*
G37*
%TD*%
%TO.C,R24*%
G36*
G01*
X245754999Y-208795000D02*
X247005001Y-208795000D01*
G75*
G02*
X247255000Y-209044999I0J-249999D01*
G01*
X247255000Y-209670001D01*
G75*
G02*
X247005001Y-209920000I-249999J0D01*
G01*
X245754999Y-209920000D01*
G75*
G02*
X245505000Y-209670001I0J249999D01*
G01*
X245505000Y-209044999D01*
G75*
G02*
X245754999Y-208795000I249999J0D01*
G01*
G37*
G36*
G01*
X245754999Y-211720000D02*
X247005001Y-211720000D01*
G75*
G02*
X247255000Y-211969999I0J-249999D01*
G01*
X247255000Y-212595001D01*
G75*
G02*
X247005001Y-212845000I-249999J0D01*
G01*
X245754999Y-212845000D01*
G75*
G02*
X245505000Y-212595001I0J249999D01*
G01*
X245505000Y-211969999D01*
G75*
G02*
X245754999Y-211720000I249999J0D01*
G01*
G37*
%TD*%
%TO.C,R25*%
G36*
G01*
X247005001Y-184520000D02*
X245754999Y-184520000D01*
G75*
G02*
X245505000Y-184270001I0J249999D01*
G01*
X245505000Y-183644999D01*
G75*
G02*
X245754999Y-183395000I249999J0D01*
G01*
X247005001Y-183395000D01*
G75*
G02*
X247255000Y-183644999I0J-249999D01*
G01*
X247255000Y-184270001D01*
G75*
G02*
X247005001Y-184520000I-249999J0D01*
G01*
G37*
G36*
G01*
X247005001Y-187445000D02*
X245754999Y-187445000D01*
G75*
G02*
X245505000Y-187195001I0J249999D01*
G01*
X245505000Y-186569999D01*
G75*
G02*
X245754999Y-186320000I249999J0D01*
G01*
X247005001Y-186320000D01*
G75*
G02*
X247255000Y-186569999I0J-249999D01*
G01*
X247255000Y-187195001D01*
G75*
G02*
X247005001Y-187445000I-249999J0D01*
G01*
G37*
%TD*%
%TO.C,R26*%
G36*
G01*
X249545001Y-187445000D02*
X248294999Y-187445000D01*
G75*
G02*
X248045000Y-187195001I0J249999D01*
G01*
X248045000Y-186569999D01*
G75*
G02*
X248294999Y-186320000I249999J0D01*
G01*
X249545001Y-186320000D01*
G75*
G02*
X249795000Y-186569999I0J-249999D01*
G01*
X249795000Y-187195001D01*
G75*
G02*
X249545001Y-187445000I-249999J0D01*
G01*
G37*
G36*
G01*
X249545001Y-184520000D02*
X248294999Y-184520000D01*
G75*
G02*
X248045000Y-184270001I0J249999D01*
G01*
X248045000Y-183644999D01*
G75*
G02*
X248294999Y-183395000I249999J0D01*
G01*
X249545001Y-183395000D01*
G75*
G02*
X249795000Y-183644999I0J-249999D01*
G01*
X249795000Y-184270001D01*
G75*
G02*
X249545001Y-184520000I-249999J0D01*
G01*
G37*
%TD*%
%TO.C,R27*%
G36*
G01*
X263534999Y-186320000D02*
X264785001Y-186320000D01*
G75*
G02*
X265035000Y-186569999I0J-249999D01*
G01*
X265035000Y-187195001D01*
G75*
G02*
X264785001Y-187445000I-249999J0D01*
G01*
X263534999Y-187445000D01*
G75*
G02*
X263285000Y-187195001I0J249999D01*
G01*
X263285000Y-186569999D01*
G75*
G02*
X263534999Y-186320000I249999J0D01*
G01*
G37*
G36*
G01*
X263534999Y-183395000D02*
X264785001Y-183395000D01*
G75*
G02*
X265035000Y-183644999I0J-249999D01*
G01*
X265035000Y-184270001D01*
G75*
G02*
X264785001Y-184520000I-249999J0D01*
G01*
X263534999Y-184520000D01*
G75*
G02*
X263285000Y-184270001I0J249999D01*
G01*
X263285000Y-183644999D01*
G75*
G02*
X263534999Y-183395000I249999J0D01*
G01*
G37*
%TD*%
%TO.C,R28*%
G36*
G01*
X266074999Y-183395000D02*
X267325001Y-183395000D01*
G75*
G02*
X267575000Y-183644999I0J-249999D01*
G01*
X267575000Y-184270001D01*
G75*
G02*
X267325001Y-184520000I-249999J0D01*
G01*
X266074999Y-184520000D01*
G75*
G02*
X265825000Y-184270001I0J249999D01*
G01*
X265825000Y-183644999D01*
G75*
G02*
X266074999Y-183395000I249999J0D01*
G01*
G37*
G36*
G01*
X266074999Y-186320000D02*
X267325001Y-186320000D01*
G75*
G02*
X267575000Y-186569999I0J-249999D01*
G01*
X267575000Y-187195001D01*
G75*
G02*
X267325001Y-187445000I-249999J0D01*
G01*
X266074999Y-187445000D01*
G75*
G02*
X265825000Y-187195001I0J249999D01*
G01*
X265825000Y-186569999D01*
G75*
G02*
X266074999Y-186320000I249999J0D01*
G01*
G37*
%TD*%
%TO.C,R29*%
G36*
G01*
X264785001Y-209920000D02*
X263534999Y-209920000D01*
G75*
G02*
X263285000Y-209670001I0J249999D01*
G01*
X263285000Y-209044999D01*
G75*
G02*
X263534999Y-208795000I249999J0D01*
G01*
X264785001Y-208795000D01*
G75*
G02*
X265035000Y-209044999I0J-249999D01*
G01*
X265035000Y-209670001D01*
G75*
G02*
X264785001Y-209920000I-249999J0D01*
G01*
G37*
G36*
G01*
X264785001Y-212845000D02*
X263534999Y-212845000D01*
G75*
G02*
X263285000Y-212595001I0J249999D01*
G01*
X263285000Y-211969999D01*
G75*
G02*
X263534999Y-211720000I249999J0D01*
G01*
X264785001Y-211720000D01*
G75*
G02*
X265035000Y-211969999I0J-249999D01*
G01*
X265035000Y-212595001D01*
G75*
G02*
X264785001Y-212845000I-249999J0D01*
G01*
G37*
%TD*%
%TO.C,R30*%
G36*
G01*
X259705001Y-212845000D02*
X258454999Y-212845000D01*
G75*
G02*
X258205000Y-212595001I0J249999D01*
G01*
X258205000Y-211969999D01*
G75*
G02*
X258454999Y-211720000I249999J0D01*
G01*
X259705001Y-211720000D01*
G75*
G02*
X259955000Y-211969999I0J-249999D01*
G01*
X259955000Y-212595001D01*
G75*
G02*
X259705001Y-212845000I-249999J0D01*
G01*
G37*
G36*
G01*
X259705001Y-209920000D02*
X258454999Y-209920000D01*
G75*
G02*
X258205000Y-209670001I0J249999D01*
G01*
X258205000Y-209044999D01*
G75*
G02*
X258454999Y-208795000I249999J0D01*
G01*
X259705001Y-208795000D01*
G75*
G02*
X259955000Y-209044999I0J-249999D01*
G01*
X259955000Y-209670001D01*
G75*
G02*
X259705001Y-209920000I-249999J0D01*
G01*
G37*
%TD*%
%TO.C,R31*%
G36*
G01*
X257165001Y-209920000D02*
X255914999Y-209920000D01*
G75*
G02*
X255665000Y-209670001I0J249999D01*
G01*
X255665000Y-209044999D01*
G75*
G02*
X255914999Y-208795000I249999J0D01*
G01*
X257165001Y-208795000D01*
G75*
G02*
X257415000Y-209044999I0J-249999D01*
G01*
X257415000Y-209670001D01*
G75*
G02*
X257165001Y-209920000I-249999J0D01*
G01*
G37*
G36*
G01*
X257165001Y-212845000D02*
X255914999Y-212845000D01*
G75*
G02*
X255665000Y-212595001I0J249999D01*
G01*
X255665000Y-211969999D01*
G75*
G02*
X255914999Y-211720000I249999J0D01*
G01*
X257165001Y-211720000D01*
G75*
G02*
X257415000Y-211969999I0J-249999D01*
G01*
X257415000Y-212595001D01*
G75*
G02*
X257165001Y-212845000I-249999J0D01*
G01*
G37*
%TD*%
%TO.C,R32*%
G36*
G01*
X260994999Y-183395000D02*
X262245001Y-183395000D01*
G75*
G02*
X262495000Y-183644999I0J-249999D01*
G01*
X262495000Y-184270001D01*
G75*
G02*
X262245001Y-184520000I-249999J0D01*
G01*
X260994999Y-184520000D01*
G75*
G02*
X260745000Y-184270001I0J249999D01*
G01*
X260745000Y-183644999D01*
G75*
G02*
X260994999Y-183395000I249999J0D01*
G01*
G37*
G36*
G01*
X260994999Y-186320000D02*
X262245001Y-186320000D01*
G75*
G02*
X262495000Y-186569999I0J-249999D01*
G01*
X262495000Y-187195001D01*
G75*
G02*
X262245001Y-187445000I-249999J0D01*
G01*
X260994999Y-187445000D01*
G75*
G02*
X260745000Y-187195001I0J249999D01*
G01*
X260745000Y-186569999D01*
G75*
G02*
X260994999Y-186320000I249999J0D01*
G01*
G37*
%TD*%
%TO.C,R33*%
G36*
G01*
X262245001Y-212845000D02*
X260994999Y-212845000D01*
G75*
G02*
X260745000Y-212595001I0J249999D01*
G01*
X260745000Y-211969999D01*
G75*
G02*
X260994999Y-211720000I249999J0D01*
G01*
X262245001Y-211720000D01*
G75*
G02*
X262495000Y-211969999I0J-249999D01*
G01*
X262495000Y-212595001D01*
G75*
G02*
X262245001Y-212845000I-249999J0D01*
G01*
G37*
G36*
G01*
X262245001Y-209920000D02*
X260994999Y-209920000D01*
G75*
G02*
X260745000Y-209670001I0J249999D01*
G01*
X260745000Y-209044999D01*
G75*
G02*
X260994999Y-208795000I249999J0D01*
G01*
X262245001Y-208795000D01*
G75*
G02*
X262495000Y-209044999I0J-249999D01*
G01*
X262495000Y-209670001D01*
G75*
G02*
X262245001Y-209920000I-249999J0D01*
G01*
G37*
%TD*%
D11*
%TO.C,U1*%
X254000000Y-154940000D03*
D10*
X254000000Y-157480000D03*
X254000000Y-160020000D03*
X254000000Y-162560000D03*
X254000000Y-165100000D03*
X259080000Y-165100000D03*
X259080000Y-162560000D03*
X259080000Y-160020000D03*
X259080000Y-157480000D03*
X259080000Y-154940000D03*
%TD*%
D19*
%TO.C,U2*%
X246380000Y-205740000D03*
D20*
X248920000Y-205740000D03*
X251460000Y-205740000D03*
X254000000Y-205740000D03*
X256540000Y-205740000D03*
X259080000Y-205740000D03*
X261620000Y-205740000D03*
X264160000Y-205740000D03*
X266700000Y-205740000D03*
X266700000Y-190500000D03*
X264160000Y-190500000D03*
X261620000Y-190500000D03*
X259080000Y-190500000D03*
X256540000Y-190500000D03*
X254000000Y-190500000D03*
X251460000Y-190500000D03*
X248920000Y-190500000D03*
X246380000Y-190500000D03*
%TD*%
D21*
%TO.C,D1*%
X271780000Y-127000000D03*
D22*
X271780000Y-129540000D03*
%TD*%
%TO.C,D2*%
X261620000Y-129540000D03*
D21*
X261620000Y-127000000D03*
%TD*%
D22*
%TO.C,D3*%
X251460000Y-129540000D03*
D21*
X251460000Y-127000000D03*
%TD*%
%TO.C,D4*%
X241300000Y-127000000D03*
D22*
X241300000Y-129540000D03*
%TD*%
D23*
%TO.C,SW6*%
X173510000Y-173910000D03*
D24*
X173510000Y-171910000D03*
X173510000Y-169910000D03*
X173510000Y-167910000D03*
X173510000Y-165910000D03*
X173510000Y-163910000D03*
X171010000Y-173910000D03*
X171010000Y-171910000D03*
X171010000Y-169910000D03*
X171010000Y-167910000D03*
X171010000Y-165910000D03*
X171010000Y-163910000D03*
D25*
X169460000Y-175510000D03*
X175060000Y-162310000D03*
%TD*%
D26*
%TO.C,TP1*%
X208280000Y-201422000D03*
G36*
G01*
X206905002Y-197632003D02*
X209654998Y-197632003D01*
G75*
G02*
X210279996Y-198257001I0J-624998D01*
G01*
X210279996Y-199506999D01*
G75*
G02*
X209654998Y-200131997I-624998J0D01*
G01*
X206905002Y-200131997D01*
G75*
G02*
X206280004Y-199506999I0J624998D01*
G01*
X206280004Y-198257001D01*
G75*
G02*
X206905002Y-197632003I624998J0D01*
G01*
G37*
D27*
X208280000Y-195580000D03*
%TD*%
%TO.C,TP2*%
X200660000Y-195580000D03*
G36*
G01*
X199285002Y-197632003D02*
X202034998Y-197632003D01*
G75*
G02*
X202659996Y-198257001I0J-624998D01*
G01*
X202659996Y-199506999D01*
G75*
G02*
X202034998Y-200131997I-624998J0D01*
G01*
X199285002Y-200131997D01*
G75*
G02*
X198660004Y-199506999I0J624998D01*
G01*
X198660004Y-198257001D01*
G75*
G02*
X199285002Y-197632003I624998J0D01*
G01*
G37*
D26*
X200660000Y-201422000D03*
%TD*%
%TO.C,TP3*%
X266700000Y-131318000D03*
G36*
G01*
X268074998Y-135107997D02*
X265325002Y-135107997D01*
G75*
G02*
X264700004Y-134482999I0J624998D01*
G01*
X264700004Y-133233001D01*
G75*
G02*
X265325002Y-132608003I624998J0D01*
G01*
X268074998Y-132608003D01*
G75*
G02*
X268699996Y-133233001I0J-624998D01*
G01*
X268699996Y-134482999D01*
G75*
G02*
X268074998Y-135107997I-624998J0D01*
G01*
G37*
D27*
X266700000Y-137160000D03*
%TD*%
%TO.C,TP4*%
X256540000Y-137160000D03*
G36*
G01*
X257914998Y-135107997D02*
X255165002Y-135107997D01*
G75*
G02*
X254540004Y-134482999I0J624998D01*
G01*
X254540004Y-133233001D01*
G75*
G02*
X255165002Y-132608003I624998J0D01*
G01*
X257914998Y-132608003D01*
G75*
G02*
X258539996Y-133233001I0J-624998D01*
G01*
X258539996Y-134482999D01*
G75*
G02*
X257914998Y-135107997I-624998J0D01*
G01*
G37*
D26*
X256540000Y-131318000D03*
%TD*%
%TO.C,TP5*%
X246380000Y-131318000D03*
G36*
G01*
X247754998Y-135107997D02*
X245005002Y-135107997D01*
G75*
G02*
X244380004Y-134482999I0J624998D01*
G01*
X244380004Y-133233001D01*
G75*
G02*
X245005002Y-132608003I624998J0D01*
G01*
X247754998Y-132608003D01*
G75*
G02*
X248379996Y-133233001I0J-624998D01*
G01*
X248379996Y-134482999D01*
G75*
G02*
X247754998Y-135107997I-624998J0D01*
G01*
G37*
D27*
X246380000Y-137160000D03*
%TD*%
%TO.C,TP6*%
X236220000Y-137160000D03*
G36*
G01*
X237594998Y-135107997D02*
X234845002Y-135107997D01*
G75*
G02*
X234220004Y-134482999I0J624998D01*
G01*
X234220004Y-133233001D01*
G75*
G02*
X234845002Y-132608003I624998J0D01*
G01*
X237594998Y-132608003D01*
G75*
G02*
X238219996Y-133233001I0J-624998D01*
G01*
X238219996Y-134482999D01*
G75*
G02*
X237594998Y-135107997I-624998J0D01*
G01*
G37*
D26*
X236220000Y-131318000D03*
%TD*%
D27*
%TO.C,TP7*%
X233680000Y-154940000D03*
D26*
X237490000Y-154940000D03*
%TD*%
%TO.C,TP8*%
X237490000Y-158750000D03*
D27*
X233680000Y-158750000D03*
%TD*%
%TO.C,TP9*%
X233680000Y-162560000D03*
D26*
X237490000Y-162560000D03*
%TD*%
%TO.C,TP10*%
X237490000Y-166370000D03*
D27*
X233680000Y-166370000D03*
%TD*%
%TO.C,TP11*%
X233680000Y-170180000D03*
D26*
X237490000Y-170180000D03*
%TD*%
%TO.C,TP12*%
X237490000Y-173990000D03*
D27*
X233680000Y-173990000D03*
%TD*%
%TO.C,TP13*%
X233680000Y-177800000D03*
D26*
X237490000Y-177800000D03*
%TD*%
D27*
%TO.C,TP14*%
X259080000Y-148590000D03*
G36*
G01*
X261132003Y-149964998D02*
X261132003Y-147215002D01*
G75*
G02*
X261757001Y-146590004I624998J0D01*
G01*
X263006999Y-146590004D01*
G75*
G02*
X263631997Y-147215002I0J-624998D01*
G01*
X263631997Y-149964998D01*
G75*
G02*
X263006999Y-150589996I-624998J0D01*
G01*
X261757001Y-150589996D01*
G75*
G02*
X261132003Y-149964998I0J624998D01*
G01*
G37*
D26*
X264922000Y-148590000D03*
%TD*%
%TO.C,TP15*%
X233680000Y-184658000D03*
G36*
G01*
X235054998Y-188447997D02*
X232305002Y-188447997D01*
G75*
G02*
X231680004Y-187822999I0J624998D01*
G01*
X231680004Y-186573001D01*
G75*
G02*
X232305002Y-185948003I624998J0D01*
G01*
X235054998Y-185948003D01*
G75*
G02*
X235679996Y-186573001I0J-624998D01*
G01*
X235679996Y-187822999D01*
G75*
G02*
X235054998Y-188447997I-624998J0D01*
G01*
G37*
D27*
X233680000Y-190500000D03*
%TD*%
%TO.C,TP16*%
X238760000Y-190500000D03*
G36*
G01*
X240134998Y-188447997D02*
X237385002Y-188447997D01*
G75*
G02*
X236760004Y-187822999I0J624998D01*
G01*
X236760004Y-186573001D01*
G75*
G02*
X237385002Y-185948003I624998J0D01*
G01*
X240134998Y-185948003D01*
G75*
G02*
X240759996Y-186573001I0J-624998D01*
G01*
X240759996Y-187822999D01*
G75*
G02*
X240134998Y-188447997I-624998J0D01*
G01*
G37*
D26*
X238760000Y-184658000D03*
%TD*%
%TO.C,TP17*%
X196342000Y-149860000D03*
G36*
G01*
X192552003Y-151234998D02*
X192552003Y-148485002D01*
G75*
G02*
X193177001Y-147860004I624998J0D01*
G01*
X194426999Y-147860004D01*
G75*
G02*
X195051997Y-148485002I0J-624998D01*
G01*
X195051997Y-151234998D01*
G75*
G02*
X194426999Y-151859996I-624998J0D01*
G01*
X193177001Y-151859996D01*
G75*
G02*
X192552003Y-151234998I0J624998D01*
G01*
G37*
D27*
X190500000Y-149860000D03*
%TD*%
%TO.C,TP18*%
X180340000Y-149860000D03*
G36*
G01*
X182392003Y-151234998D02*
X182392003Y-148485002D01*
G75*
G02*
X183017001Y-147860004I624998J0D01*
G01*
X184266999Y-147860004D01*
G75*
G02*
X184891997Y-148485002I0J-624998D01*
G01*
X184891997Y-151234998D01*
G75*
G02*
X184266999Y-151859996I-624998J0D01*
G01*
X183017001Y-151859996D01*
G75*
G02*
X182392003Y-151234998I0J624998D01*
G01*
G37*
D26*
X186182000Y-149860000D03*
%TD*%
%TO.C,TP19*%
X176022000Y-149860000D03*
G36*
G01*
X172232003Y-151234998D02*
X172232003Y-148485002D01*
G75*
G02*
X172857001Y-147860004I624998J0D01*
G01*
X174106999Y-147860004D01*
G75*
G02*
X174731997Y-148485002I0J-624998D01*
G01*
X174731997Y-151234998D01*
G75*
G02*
X174106999Y-151859996I-624998J0D01*
G01*
X172857001Y-151859996D01*
G75*
G02*
X172232003Y-151234998I0J624998D01*
G01*
G37*
D27*
X170180000Y-149860000D03*
%TD*%
%TO.C,TP20*%
X160020000Y-149860000D03*
G36*
G01*
X162072003Y-151234998D02*
X162072003Y-148485002D01*
G75*
G02*
X162697001Y-147860004I624998J0D01*
G01*
X163946999Y-147860004D01*
G75*
G02*
X164571997Y-148485002I0J-624998D01*
G01*
X164571997Y-151234998D01*
G75*
G02*
X163946999Y-151859996I-624998J0D01*
G01*
X162697001Y-151859996D01*
G75*
G02*
X162072003Y-151234998I0J624998D01*
G01*
G37*
D26*
X165862000Y-149860000D03*
%TD*%
%TO.C,TP21*%
X192532000Y-196850000D03*
G36*
G01*
X188742003Y-198224998D02*
X188742003Y-195475002D01*
G75*
G02*
X189367001Y-194850004I624998J0D01*
G01*
X190616999Y-194850004D01*
G75*
G02*
X191241997Y-195475002I0J-624998D01*
G01*
X191241997Y-198224998D01*
G75*
G02*
X190616999Y-198849996I-624998J0D01*
G01*
X189367001Y-198849996D01*
G75*
G02*
X188742003Y-198224998I0J624998D01*
G01*
G37*
D27*
X186690000Y-196850000D03*
%TD*%
%TO.C,TP22*%
X163830000Y-191770000D03*
G36*
G01*
X161777997Y-190395002D02*
X161777997Y-193144998D01*
G75*
G02*
X161152999Y-193769996I-624998J0D01*
G01*
X159903001Y-193769996D01*
G75*
G02*
X159278003Y-193144998I0J624998D01*
G01*
X159278003Y-190395002D01*
G75*
G02*
X159903001Y-189770004I624998J0D01*
G01*
X161152999Y-189770004D01*
G75*
G02*
X161777997Y-190395002I0J-624998D01*
G01*
G37*
D26*
X157988000Y-191770000D03*
%TD*%
%TO.C,TP23*%
X192532000Y-191770000D03*
G36*
G01*
X188742003Y-193144998D02*
X188742003Y-190395002D01*
G75*
G02*
X189367001Y-189770004I624998J0D01*
G01*
X190616999Y-189770004D01*
G75*
G02*
X191241997Y-190395002I0J-624998D01*
G01*
X191241997Y-193144998D01*
G75*
G02*
X190616999Y-193769996I-624998J0D01*
G01*
X189367001Y-193769996D01*
G75*
G02*
X188742003Y-193144998I0J624998D01*
G01*
G37*
D27*
X186690000Y-191770000D03*
%TD*%
%TO.C,TP24*%
X163830000Y-196850000D03*
G36*
G01*
X161777997Y-195475002D02*
X161777997Y-198224998D01*
G75*
G02*
X161152999Y-198849996I-624998J0D01*
G01*
X159903001Y-198849996D01*
G75*
G02*
X159278003Y-198224998I0J624998D01*
G01*
X159278003Y-195475002D01*
G75*
G02*
X159903001Y-194850004I624998J0D01*
G01*
X161152999Y-194850004D01*
G75*
G02*
X161777997Y-195475002I0J-624998D01*
G01*
G37*
D26*
X157988000Y-196850000D03*
%TD*%
D28*
%TO.C,SW1*%
X160020000Y-139700000D03*
X160020000Y-137160000D03*
D29*
X160020000Y-134620000D03*
%TD*%
%TO.C,SW2*%
X170180000Y-134620000D03*
D28*
X170180000Y-137160000D03*
X170180000Y-139700000D03*
%TD*%
%TO.C,SW3*%
X180340000Y-139700000D03*
X180340000Y-137160000D03*
D29*
X180340000Y-134620000D03*
%TD*%
%TO.C,SW4*%
X190500000Y-134620000D03*
D28*
X190500000Y-137160000D03*
X190500000Y-139700000D03*
%TD*%
M02*
