G04 #@! TF.GenerationSoftware,KiCad,Pcbnew,(6.0.7)*
G04 #@! TF.CreationDate,2022-11-10T17:29:02-05:00*
G04 #@! TF.ProjectId,M5TC-2022-U4BN,4d355443-2d32-4303-9232-2d5534424e2e,rev?*
G04 #@! TF.SameCoordinates,Original*
G04 #@! TF.FileFunction,Soldermask,Bot*
G04 #@! TF.FilePolarity,Negative*
%FSLAX46Y46*%
G04 Gerber Fmt 4.6, Leading zero omitted, Abs format (unit mm)*
G04 Created by KiCad (PCBNEW (6.0.7)) date 2022-11-10 17:29:02*
%MOMM*%
%LPD*%
G01*
G04 APERTURE LIST*
%ADD10R,1.600000X1.600000*%
%ADD11C,1.600000*%
%ADD12C,0.900000*%
%ADD13C,10.600000*%
%ADD14R,1.700000X1.700000*%
%ADD15O,1.700000X1.700000*%
%ADD16R,1.500000X1.500000*%
%ADD17C,1.500000*%
%ADD18R,1.800000X1.800000*%
%ADD19C,1.800000*%
%ADD20R,1.300000X1.300000*%
%ADD21C,1.300000*%
%ADD22C,1.900000*%
%ADD23C,1.999996*%
%ADD24C,1.499997*%
%ADD25R,1.524000X1.524000*%
%ADD26C,1.524000*%
G04 APERTURE END LIST*
D10*
X205740000Y-144780000D03*
D11*
X205740000Y-147320000D03*
X205740000Y-149860000D03*
X205740000Y-152400000D03*
X205740000Y-154940000D03*
X205740000Y-157480000D03*
X205740000Y-160020000D03*
X205740000Y-162560000D03*
X205740000Y-165100000D03*
X205740000Y-167640000D03*
X205740000Y-170180000D03*
X205740000Y-172720000D03*
X205740000Y-175260000D03*
X205740000Y-177800000D03*
X205740000Y-180340000D03*
X205740000Y-182880000D03*
X226060000Y-182880000D03*
X226060000Y-180340000D03*
X226060000Y-177800000D03*
X226060000Y-175260000D03*
X226060000Y-172720000D03*
X226060000Y-170180000D03*
X226060000Y-167640000D03*
X226060000Y-165100000D03*
X226060000Y-162560000D03*
X226060000Y-160020000D03*
X226060000Y-157480000D03*
X226060000Y-154940000D03*
D12*
X269075000Y-222250000D03*
X273050000Y-218275000D03*
D13*
X273050000Y-222250000D03*
D12*
X270239251Y-219439251D03*
X277025000Y-222250000D03*
X273050000Y-226225000D03*
X270239251Y-225060749D03*
X275860749Y-225060749D03*
X275860749Y-219439251D03*
X277025000Y-107950000D03*
X273050000Y-111925000D03*
X275860749Y-110760749D03*
D13*
X273050000Y-107950000D03*
D12*
X275860749Y-105139251D03*
X269075000Y-107950000D03*
X270239251Y-105139251D03*
X270239251Y-110760749D03*
X273050000Y-103975000D03*
X161560749Y-219439251D03*
X162725000Y-222250000D03*
X158750000Y-218275000D03*
X154775000Y-222250000D03*
X155939251Y-219439251D03*
X155939251Y-225060749D03*
D13*
X158750000Y-222250000D03*
D12*
X158750000Y-226225000D03*
X161560749Y-225060749D03*
X162725000Y-107950000D03*
X154775000Y-107950000D03*
X155939251Y-110760749D03*
X158750000Y-111925000D03*
X161560749Y-110760749D03*
X158750000Y-103975000D03*
X161560749Y-105139251D03*
D13*
X158750000Y-107950000D03*
D12*
X155939251Y-105139251D03*
D14*
X195580000Y-175260000D03*
D15*
X198120000Y-175260000D03*
X195580000Y-172720000D03*
X198120000Y-172720000D03*
X195580000Y-170180000D03*
X198120000Y-170180000D03*
D10*
X254000000Y-154940000D03*
D11*
X254000000Y-157480000D03*
X254000000Y-160020000D03*
X254000000Y-162560000D03*
X254000000Y-165100000D03*
X259080000Y-165100000D03*
X259080000Y-162560000D03*
X259080000Y-160020000D03*
X259080000Y-157480000D03*
X259080000Y-154940000D03*
D16*
X246380000Y-205740000D03*
D17*
X248920000Y-205740000D03*
X251460000Y-205740000D03*
X254000000Y-205740000D03*
X256540000Y-205740000D03*
X259080000Y-205740000D03*
X261620000Y-205740000D03*
X264160000Y-205740000D03*
X266700000Y-205740000D03*
X266700000Y-190500000D03*
X264160000Y-190500000D03*
X261620000Y-190500000D03*
X259080000Y-190500000D03*
X256540000Y-190500000D03*
X254000000Y-190500000D03*
X251460000Y-190500000D03*
X248920000Y-190500000D03*
X246380000Y-190500000D03*
D18*
X271780000Y-129540000D03*
D19*
X271780000Y-127000000D03*
D18*
X261620000Y-129540000D03*
D19*
X261620000Y-127000000D03*
D18*
X251460000Y-129540000D03*
D19*
X251460000Y-127000000D03*
D18*
X241300000Y-129540000D03*
D19*
X241300000Y-127000000D03*
D20*
X173510000Y-173910000D03*
D21*
X173510000Y-171910000D03*
X173510000Y-169910000D03*
X173510000Y-167910000D03*
X173510000Y-165910000D03*
X173510000Y-163910000D03*
X171010000Y-173910000D03*
X171010000Y-171910000D03*
X171010000Y-169910000D03*
X171010000Y-167910000D03*
X171010000Y-165910000D03*
X171010000Y-163910000D03*
D22*
X169460000Y-175510000D03*
X175060000Y-162310000D03*
D23*
X208915000Y-195580000D03*
D24*
X208915000Y-201422000D03*
D23*
X200660000Y-195580000D03*
D24*
X200660000Y-201422000D03*
X266700000Y-131318000D03*
D23*
X266700000Y-137160000D03*
X256540000Y-137160000D03*
D24*
X256540000Y-131318000D03*
X246380000Y-131318000D03*
D23*
X246380000Y-137160000D03*
D24*
X236220000Y-131318000D03*
D23*
X236220000Y-137160000D03*
X233680000Y-154940000D03*
D24*
X237490000Y-154940000D03*
D23*
X233680000Y-158750000D03*
D24*
X237490000Y-158750000D03*
X237490000Y-162560000D03*
D23*
X233680000Y-162560000D03*
D24*
X237490000Y-166370000D03*
D23*
X233680000Y-166370000D03*
X233680000Y-170180000D03*
D24*
X237490000Y-170180000D03*
X237490000Y-173990000D03*
D23*
X233680000Y-173990000D03*
D24*
X237490000Y-177800000D03*
D23*
X233680000Y-177800000D03*
D24*
X264922000Y-148590000D03*
D23*
X259080000Y-148590000D03*
X238760000Y-189992000D03*
D24*
X238760000Y-184150000D03*
D23*
X232410000Y-189992000D03*
D24*
X232410000Y-184150000D03*
X196342000Y-149860000D03*
D23*
X190500000Y-149860000D03*
X180340000Y-149860000D03*
D24*
X186182000Y-149860000D03*
D23*
X170180000Y-149860000D03*
D24*
X176022000Y-149860000D03*
D23*
X160020000Y-149860000D03*
D24*
X165862000Y-149860000D03*
X192532000Y-196850000D03*
D23*
X186690000Y-196850000D03*
D24*
X157988000Y-191770000D03*
D23*
X163830000Y-191770000D03*
X186690000Y-191770000D03*
D24*
X192532000Y-191770000D03*
X157988000Y-196850000D03*
D23*
X163830000Y-196850000D03*
D25*
X160020000Y-134620000D03*
D26*
X160020000Y-137160000D03*
X160020000Y-139700000D03*
D25*
X170180000Y-134620000D03*
D26*
X170180000Y-137160000D03*
X170180000Y-139700000D03*
D25*
X180340000Y-134620000D03*
D26*
X180340000Y-137160000D03*
X180340000Y-139700000D03*
D25*
X190500000Y-134620000D03*
D26*
X190500000Y-137160000D03*
X190500000Y-139700000D03*
M02*
